<svg xmlns="http://www.w3.org/2000/svg" width="512" height="512" viewBox="0 0 512 512">
<g>
<path d="M 54.00 24.23 C54.00,24.66 88.65,25.00 131.00,25.00 C173.48,25.00 208.00,24.61 208.00,24.14 C208.00,23.32 201.88,19.40 194.93,15.42 C201.87,19.36 208.00,23.23 208.00,23.99 C208.00,24.38 209.31,24.73 210.92,24.78 C214.32,24.88 219.07,27.17 224.00,31.10 C225.58,32.35 227.48,33.49 229.63,34.49 L 226.50 33.41 L 228.69 37.95 C229.90,40.45 231.02,44.30 231.19,46.50 C231.49,50.34 231.37,50.51 228.32,50.81 C225.25,51.11 225.12,50.96 224.45,46.53 C223.60,40.88 220.59,36.25 216.00,33.55 C212.80,31.68 210.55,31.47 189.76,31.17 L 167.01 30.84 L 165.93 33.67 C165.34,35.23 164.66,38.08 164.43,40.00 C164.15,42.26 162.93,44.47 160.99,46.25 L 157.97 49.00 L 121.23 49.00 C86.28,48.99 84.34,48.90 81.23,47.00 C77.60,44.79 76.61,42.81 75.56,35.67 L 74.85 30.84 L 51.68 31.17 C25.42,31.54 24.10,31.87 19.25,39.20 L 16.50 43.35 L 16.30 149.43 C16.11,247.32 16.22,255.23 17.70,252.00 C25.21,235.55 27.68,230.77 32.34,223.65 C37.91,215.16 46.50,205.00 48.13,205.00 C48.66,205.00 48.59,205.90 47.95,207.09 C46.75,209.34 46.55,226.17 47.61,237.18 C48.20,243.35 47.97,244.48 44.61,252.31 C39.99,263.07 37.15,274.16 36.35,284.62 C36.04,288.61 36.08,290.83 35.01,292.13 C33.47,294.01 29.63,293.99 19.16,294.59 L 7.46 295.26 C7.63,295.08 7.85,295.00 8.14,295.00 C9.28,295.00 9.46,275.14 9.23,170.81 C8.98,50.27 8.60,39.92 13.58,34.31 C14.39,33.40 15.34,32.61 16.46,31.49 C22.27,25.68 28.07,24.00 42.33,24.00 C50.49,24.00 52.59,23.99 55.38,22.49 C54.49,23.22 54.00,23.82 54.00,24.23 ZM 229.90 345.51 C228.39,348.39 227.34,350.61 226.62,350.51 C224.90,350.27 225.00,336.98 225.00,288.38 C225.00,253.15 224.73,224.06 224.40,223.73 C224.06,223.40 220.98,225.51 217.55,228.42 C211.37,233.66 201.73,240.52 197.11,242.96 L 194.72 244.22 L 195.45 229.36 L 196.17 214.50 L 203.01 208.24 C210.02,201.82 217.08,193.11 221.82,185.05 L 224.50 180.50 L 225.50 110.50 L 231.00 109.87 L 231.22 129.68 C231.43,148.30 231.63,157.17 231.89,159.50 C231.95,160.05 233.12,160.56 234.48,160.64 C235.85,160.72 241.49,161.58 247.03,162.55 L 257.09 164.32 L 256.43 167.32 C255.43,171.88 249.25,186.82 245.81,193.00 C244.13,196.02 240.34,201.97 237.38,206.22 L 232.00 213.94 L 232.00 277.73 C232.00,340.58 231.97,341.59 229.90,345.51 ZM 8.47 375.47 C8.75,375.81 8.98,376.00 9.16,376.00 C10.58,376.00 9.56,329.44 8.00,323.46 C6.89,319.18 6.91,317.75 8.18,313.96 L 9.66 309.50 L 16.08 308.89 C19.61,308.55 25.75,307.98 29.73,307.63 L 36.95 306.99 L 38.84 310.75 C41.62,316.31 42.18,319.63 41.03,323.91 C38.72,332.47 31.19,337.61 22.31,336.69 C17.36,336.18 16.96,336.30 16.41,338.50 C16.09,339.79 15.97,350.00 16.16,361.18 C16.57,385.65 17.24,387.78 25.98,392.25 L 31.36 395.00 L 116.68 395.00 C188.51,395.00 201.32,394.86 201.81,397.25 C201.94,397.90 201.18,398.72 200.44,399.78 L 198.89 402.00 L 29.69 402.00 L 31.60 404.13 C31.74,404.29 31.90,404.46 32.06,404.63 C31.70,404.28 31.38,403.94 31.08,403.62 C29.37,401.78 27.64,401.00 25.23,401.00 C20.17,401.00 15.16,398.21 12.20,393.73 C10.06,390.49 9.58,388.58 9.54,383.14 C9.52,379.77 9.06,376.50 8.47,375.47 ZM 140.54 384.52 C136.29,386.60 133.51,387.14 125.42,387.45 C108.44,388.11 100.87,385.77 91.62,377.03 C84.62,370.40 80.84,362.21 80.20,352.26 C79.95,348.26 80.04,345.00 80.40,345.00 C80.77,345.00 82.10,345.67 83.36,346.50 C84.62,347.32 88.99,349.23 93.07,350.74 C100.27,353.40 101.13,353.49 121.00,353.49 C143.75,353.50 147.07,352.83 162.25,345.21 C163.36,344.65 163.16,351.13 161.89,357.20 C159.41,369.06 151.52,379.15 140.54,384.52 ZM 407.84 265.27 C403.99,267.99 400.90,269.35 397.88,269.65 C392.21,270.21 390.23,269.01 392.88,266.60 C397.41,262.51 398.07,254.79 394.01,253.50 C392.15,252.91 392.12,252.68 393.51,249.98 C396.75,243.71 395.83,241.86 385.75,234.37 C372.79,224.74 369.36,217.43 373.85,208.98 C377.46,202.19 386.41,198.84 391.53,202.36 C392.61,203.11 395.30,204.04 397.50,204.43 C403.67,205.52 412.10,209.72 416.33,213.80 C422.56,219.80 424.46,224.32 424.42,233.00 C424.36,245.85 418.11,258.01 407.84,265.27 ZM 263.46 148.26 C262.06,149.77 260.37,150.94 259.71,150.87 C259.04,150.81 253.77,149.89 248.00,148.84 C235.28,146.52 234.00,145.44 234.00,137.04 C234.00,127.43 239.83,121.01 249.28,120.23 C264.84,118.94 273.95,136.94 263.46,148.26 ZM 166.00 178.13 L 166.00 188.00 L 77.00 188.00 L 77.00 178.13 L 80.75 178.81 C82.81,179.19 101.15,179.50 121.50,179.50 C141.85,179.50 160.19,179.19 162.25,178.81 L 166.00 178.13 ZM 130.38 112.71 C128.46,114.63 127.03,115.00 121.60,115.00 C112.88,115.00 110.28,112.83 109.38,104.83 L 108.74 99.16 L 113.51 98.45 C117.91,97.79 132.70,98.37 133.57,99.24 C133.78,99.45 133.66,102.05 133.31,105.02 C132.87,108.71 131.95,111.14 130.38,112.71 ZM 143.44 149.78 C139.27,155.73 130.98,149.00 134.19,142.27 C135.99,138.50 141.11,137.89 143.40,141.17 C145.42,144.04 145.43,146.94 143.44,149.78 ZM 107.44 149.78 C104.15,154.47 98.00,151.28 98.00,144.87 C98.00,140.63 99.48,139.00 103.34,139.00 C108.46,139.00 110.76,145.05 107.44,149.78 ZM 363.00 230.94 C363.00,232.20 361.44,233.11 360.64,232.31 C359.51,231.18 359.95,230.00 361.50,230.00 C362.33,230.00 363.00,230.42 363.00,230.94 ZM 374.60 242.27 C374.94,242.60 375.02,243.44 374.79,244.14 C374.45,245.15 374.21,245.15 373.58,244.13 C372.75,242.78 373.59,241.25 374.60,242.27 ZM 271.04 38.11 C261.80,40.45 252.06,40.56 242.54,38.48 C251.89,40.25 262.44,40.28 271.04,38.11 ZM 0.28 333.52 C0.08,338.95 0.26,344.90 0.77,350.18 C0.28,346.59 0.00,343.08 0.00,339.98 C0.00,338.07 0.10,335.88 0.28,333.52 ZM 7.21 297.98 L 7.23 298.12 C7.46,299.68 7.29,301.07 6.84,301.23 C5.99,301.52 3.97,308.97 2.41,316.85 C3.85,308.53 5.62,301.64 6.84,301.23 C7.29,301.07 7.45,299.61 7.21,297.98 ZM 137.00 0.62 C126.42,0.61 117.66,1.12 109.37,2.33 C117.42,0.95 123.46,0.60 137.00,0.62 ZM 81.62 9.39 C75.18,11.79 68.17,14.99 62.82,17.85 C68.30,14.68 74.60,11.85 81.62,9.39 ZM 3.73 364.61 C5.26,369.24 7.09,373.50 8.28,375.21 C6.75,373.55 5.13,369.57 3.73,364.61 ZM 48.56 417.41 C56.66,422.86 66.09,428.53 73.97,432.48 C65.91,428.44 56.61,422.85 48.56,417.41 Z" fill="rgba(28,47,87,1)"/>
<path d="M 19.08 248.98 C19.61,246.20 22.76,239.89 26.79,232.98 C24.75,236.82 22.47,241.60 19.08,248.98 ZM 16.62 248.33 C16.98,249.76 17.62,250.76 18.15,251.02 C18.00,251.34 17.85,251.67 17.70,252.00 C17.20,253.10 16.85,252.91 16.62,248.33 ZM 38.47 215.14 C39.89,213.24 41.23,211.58 42.43,210.25 C42.74,209.91 43.05,209.58 43.34,209.27 C41.85,210.93 40.17,212.96 38.47,215.14 ZM 48.29 205.03 C48.81,204.94 48.75,205.60 47.95,207.09 C48.52,206.04 48.64,205.21 48.29,205.03 Z" fill="rgba(62,78,132,1)"/>
<path d="M 229.90 345.51 C231.97,341.59 232.00,340.58 232.00,277.73 L 232.00 217.62 L 232.24 277.23 L 232.50 340.50 L 239.86 326.66 C246.51,314.16 247.43,312.90 249.36,313.57 C250.54,313.97 259.50,314.50 269.28,314.73 L 287.07 315.16 L 334.87 366.43 L 335.53 373.97 C336.60,386.29 338.93,396.05 342.65,403.82 C349.14,417.42 366.06,432.31 382.17,438.64 C386.76,440.44 389.00,441.86 389.00,442.96 C389.00,446.25 383.72,455.08 379.70,458.52 C374.83,462.70 365.05,466.00 357.57,466.00 C350.08,466.00 331.08,462.39 323.44,459.51 C309.17,454.14 292.37,444.03 275.86,430.88 C271.11,427.10 266.90,424.00 266.52,424.00 C266.13,424.00 261.75,426.72 256.79,430.04 C245.46,437.61 231.35,444.50 223.38,446.35 C219.90,447.15 211.21,450.94 203.27,455.11 L 189.28 462.45 L 185.15 459.72 C178.50,455.32 175.58,449.98 175.22,441.59 C174.80,431.67 175.63,430.57 187.00,426.07 C192.23,424.00 197.73,421.71 199.23,421.00 L 201.96 419.70 L 198.48 415.85 C194.44,411.37 194.32,410.62 197.00,406.23 C198.10,404.43 199.00,402.74 199.00,402.48 C199.00,402.21 160.91,402.00 114.35,402.00 L 198.89 402.00 L 200.44 399.78 C201.18,398.72 201.94,397.90 201.81,397.25 C201.39,395.23 192.15,395.02 145.73,395.00 L 202.83 395.00 L 208.79 384.25 C212.06,378.34 217.05,369.09 219.87,363.70 L 225.00 353.90 L 225.00 308.08 C225.01,340.70 225.16,350.31 226.62,350.51 C227.34,350.61 228.39,348.39 229.90,345.51 ZM 237.00 396.45 C237.00,396.87 239.74,394.68 243.08,391.59 C246.42,388.49 251.03,385.00 253.33,383.81 C258.44,381.19 270.84,380.22 277.59,381.92 C280.15,382.56 282.44,382.89 282.69,382.65 C282.93,382.40 281.82,379.57 280.22,376.35 C278.61,373.13 276.01,367.18 274.44,363.11 C272.06,356.97 271.40,356.02 270.54,357.47 C266.19,364.80 262.83,368.76 254.44,376.48 C245.73,384.49 237.00,394.48 237.00,396.45 ZM 225.00 288.90 C225.00,253.39 224.73,224.11 224.40,223.73 C224.73,224.11 225.00,253.18 225.00,288.38 L 225.00 288.90 Z" fill="rgba(65,36,97,1)"/>
<path d="M 150.50 166.90 C143.58,168.64 96.71,168.23 90.67,166.38 C75.43,161.69 70.00,142.04 80.80,130.66 C87.01,124.12 87.75,124.00 121.85,124.00 L 152.77 124.00 L 157.58 127.25 C163.96,131.56 167.00,137.36 167.00,145.20 C167.00,152.41 164.64,157.44 158.98,162.29 C156.72,164.22 152.91,166.29 150.50,166.90 ZM 90.45 160.59 C92.74,161.59 100.42,161.93 121.09,161.96 C148.01,162.00 148.79,161.94 153.04,159.70 C157.96,157.10 162.00,150.72 162.00,145.55 C162.00,141.04 158.05,133.88 154.10,131.26 C150.77,129.04 150.14,129.00 121.81,129.00 C95.05,129.00 92.64,129.14 89.06,130.97 C85.06,133.01 81.74,137.46 80.60,142.29 C79.13,148.54 84.13,157.84 90.45,160.59 ZM 133.65 247.68 C121.18,254.00 105.80,249.78 97.78,237.84 C94.32,232.68 93.01,228.05 93.01,220.89 C93.00,216.15 93.41,214.86 95.64,212.64 L 98.27 210.00 L 144.65 210.00 L 147.08 212.59 C149.18,214.84 149.48,216.06 149.37,221.93 C149.14,233.37 143.43,242.72 133.65,247.68 ZM 76.99 42.16 C76.84,41.85 76.72,41.53 76.64,41.23 L 75.71 38.00 L 54.31 38.00 C30.56,38.00 28.53,38.43 24.96,44.30 C23.06,47.42 23.01,49.99 23.06,143.00 C23.10,203.95 23.46,237.96 24.07,237.00 C24.60,236.18 27.61,231.35 30.76,226.27 C32.70,223.15 35.33,219.35 37.74,216.12 C29.44,227.45 19.00,245.70 19.00,249.70 C19.00,252.38 17.07,250.87 16.50,247.75 C16.17,245.96 16.04,199.24 16.20,143.93 L 16.50 43.35 L 19.25 39.20 C24.10,31.87 25.42,31.54 51.68,31.17 L 74.85 30.84 L 75.56 35.67 C75.99,38.56 76.40,40.61 76.99,42.16 ZM 140.54 384.52 C147.56,381.09 153.31,375.73 157.20,369.21 C152.37,377.41 144.73,383.73 135.75,386.54 C132.05,387.70 136.35,387.87 169.20,387.93 L 206.71 388.00 L 202.83 395.00 L 31.36 395.00 L 25.98 392.25 C17.24,387.78 16.57,385.65 16.16,361.18 C15.97,350.00 16.09,339.79 16.41,338.50 C16.96,336.30 17.36,336.18 22.31,336.69 C25.01,336.97 27.58,336.69 29.93,335.92 C28.31,336.59 26.75,337.00 25.54,337.00 L 23.00 337.00 L 23.00 357.75 C23.01,376.80 23.17,378.77 25.03,381.81 C28.72,387.87 29.79,388.00 72.72,387.96 L 111.50 387.93 L 106.22 386.03 C105.78,385.87 105.35,385.71 104.91,385.54 C110.23,387.32 116.54,387.79 125.42,387.45 C133.51,387.14 136.29,386.60 140.54,384.52 ZM 218.00 367.25 L 218.00 298.14 C218.00,260.12 217.80,229.00 217.57,229.00 C217.36,229.00 214.86,230.75 211.71,233.09 C213.80,231.49 215.81,229.89 217.55,228.42 C220.98,225.51 224.06,223.40 224.40,223.73 C224.73,224.06 225.00,253.49 225.00,289.12 L 225.00 353.90 L 219.87 363.70 C219.32,364.75 218.69,365.96 218.00,367.25 ZM 218.00 190.99 L 218.00 110.07 L 224.50 110.12 L 228.50 110.15 L 228.25 110.18 L 225.50 110.50 L 224.50 180.50 L 221.82 185.05 C220.67,187.01 219.39,189.00 218.00,190.99 ZM 225.91 50.75 L 224.92 50.79 L 218.34 51.08 L 217.19 47.23 C216.55,45.11 214.87,42.28 213.44,40.94 C210.87,38.52 210.65,38.50 188.01,38.20 L 165.18 37.90 L 164.52 40.92 C164.15,42.58 162.50,45.08 160.85,46.47 L 159.43 47.66 L 160.99 46.25 C162.93,44.47 164.15,42.26 164.43,40.00 C164.66,38.08 165.34,35.23 165.93,33.67 L 167.01 30.84 L 189.76 31.17 C210.55,31.47 212.80,31.68 216.00,33.55 C220.59,36.25 223.60,40.88 224.45,46.53 C224.87,49.29 225.07,50.38 225.91,50.75 ZM 107.00 222.03 C107.00,223.98 107.51,224.04 121.24,223.78 C133.87,223.53 135.51,223.30 135.81,221.75 C136.12,220.15 134.91,220.00 121.57,220.00 C107.60,220.00 107.00,220.08 107.00,222.03 ZM 112.31 235.91 C113.05,236.65 116.38,236.97 121.49,236.79 C128.93,236.52 129.52,236.34 129.82,234.25 C130.13,232.06 129.90,232.00 121.18,232.00 C114.48,232.00 112.08,232.35 111.69,233.38 C111.39,234.14 111.68,235.28 112.31,235.91 ZM 84.22 367.31 C86.06,370.87 88.53,374.10 91.62,377.03 C93.21,378.53 94.76,379.85 96.30,380.99 C91.08,377.40 86.99,372.75 84.22,367.31 ZM 41.44 321.96 C41.17,324.96 39.99,327.75 37.90,330.40 C37.56,330.83 37.16,331.26 36.70,331.69 C38.69,329.62 40.20,326.98 41.03,323.91 C41.21,323.24 41.34,322.59 41.44,321.96 ZM 157.85 49.00 L 121.07 49.00 C90.26,49.00 85.25,48.99 82.43,47.64 C85.38,48.92 90.75,48.99 121.23,49.00 L 157.85 49.00 ZM 231.19 46.50 L 231.50 50.50 L 230.04 50.56 C231.40,50.22 231.42,49.42 231.19,46.50 ZM 196.64 243.21 L 194.72 244.29 L 194.72 244.22 L 196.64 243.21 ZM 47.30 205.56 C48.76,204.47 49.13,204.88 47.95,207.09 C49.09,204.96 48.72,204.53 47.30,205.56 ZM 207.98 235.85 C204.76,238.19 201.26,240.56 199.27,241.72 C201.70,240.25 204.82,238.14 207.98,235.85 ZM 196.17 214.50 L 202.89 208.35 C204.12,207.22 205.49,205.88 206.86,204.49 C205.59,205.80 204.30,207.06 203.01,208.24 L 196.17 214.50 Z" fill="rgba(75,88,148,1)"/>
<path d="M 123.60 276.23 C119.09,279.24 113.31,271.09 117.20,267.20 C121.07,263.33 128.45,268.39 125.92,273.18 C125.25,274.46 124.21,275.83 123.60,276.23 Z" fill="rgba(64,204,154,1)"/>
<path d="M 218.00 187.74 L 217.76 150.89 L 217.50 110.50 L 205.00 110.00 C192.22,109.49 188.92,108.58 187.02,105.04 C186.42,103.91 186.00,94.55 186.00,82.18 C186.00,62.81 186.15,61.04 187.97,58.86 L 189.93 56.50 L 189.97 78.12 C190.00,98.35 190.13,99.90 192.05,102.33 C193.17,103.76 195.76,105.39 197.80,105.96 C200.02,106.58 215.94,106.99 237.59,106.99 L 273.68 107.00 L 283.25 115.75 C288.52,120.56 292.87,125.29 292.91,126.25 C292.96,127.21 292.66,127.99 292.25,127.98 C291.84,127.97 286.33,123.92 280.00,118.98 L 268.50 110.01 L 251.50 110.02 C242.15,110.03 233.96,110.37 233.30,110.79 C232.42,111.35 232.07,117.95 232.00,135.03 C231.94,147.94 231.92,158.95 231.95,159.50 C231.98,160.00 232.91,160.47 234.11,160.61 C232.91,160.47 231.95,160.00 231.89,159.50 C231.63,157.18 231.43,148.32 231.22,129.84 L 231.00 110.17 L 218.00 110.07 L 218.00 187.74 ZM 313.72 205.53 C307.82,210.19 302.54,214.00 302.00,214.00 C299.31,214.00 301.87,210.63 310.93,202.22 L 320.85 193.00 L 358.47 193.00 C398.54,193.00 400.44,192.79 402.97,188.06 C403.58,186.91 404.01,177.46 404.03,164.82 L 404.07 143.50 L 406.03 145.86 C407.85,148.04 408.00,149.81 408.00,169.10 L 408.00 189.97 L 402.17 196.50 L 363.31 196.78 L 324.45 197.07 ZM 107.00 222.03 C107.00,220.08 107.60,220.00 121.57,220.00 C134.91,220.00 136.12,220.15 135.81,221.75 C135.51,223.30 133.87,223.53 121.24,223.78 C107.51,224.04 107.00,223.98 107.00,222.03 ZM 113.63 232.38 C115.09,232.11 117.48,232.00 121.18,232.00 C125.16,232.00 127.37,232.01 128.57,232.23 C128.23,232.57 128.00,233.24 128.00,234.00 C128.00,235.81 127.33,236.00 121.00,236.00 C114.67,236.00 114.00,235.81 114.00,234.00 C114.00,233.33 113.85,232.74 113.63,232.38 ZM 111.69 233.38 C111.70,233.33 111.73,233.28 111.75,233.24 C111.49,234.10 111.63,235.21 112.29,235.89 C111.67,235.25 111.40,234.13 111.69,233.38 ZM 129.80 232.90 C129.95,233.22 129.90,233.66 129.82,234.25 C129.89,233.74 129.88,233.28 129.80,232.90 Z" fill="rgba(126,127,215,1)"/>
<path d="M 112.31 235.91 C111.08,234.68 111.62,232.00 113.11,232.00 C113.60,232.00 114.00,232.90 114.00,234.00 C114.00,235.81 114.67,236.00 121.00,236.00 C127.33,236.00 128.00,235.81 128.00,234.00 C128.00,232.90 128.48,232.00 129.07,232.00 C129.66,232.00 130.00,233.01 129.82,234.25 C129.52,236.34 128.93,236.52 121.49,236.79 C116.38,236.97 113.05,236.65 112.31,235.91 Z" fill="rgba(129,135,185,1)"/>
<path d="M 407.84 265.27 C418.11,258.01 424.36,245.85 424.42,233.00 C424.46,224.32 422.56,219.80 416.33,213.80 C412.10,209.72 403.67,205.52 397.50,204.43 C395.30,204.04 392.61,203.11 391.53,202.36 C386.41,198.84 377.46,202.19 373.85,208.98 C369.36,217.43 372.79,224.74 385.75,234.37 C395.83,241.86 396.75,243.71 393.51,249.98 C396.76,243.70 395.82,241.79 385.95,234.58 C380.98,230.94 375.99,226.39 374.86,224.48 C373.73,222.57 372.23,221.00 371.53,221.00 C369.31,221.00 362.62,227.87 362.50,230.24 C362.24,230.09 361.88,230.00 361.50,230.00 C359.99,230.00 359.53,231.13 360.57,232.23 C360.50,232.22 360.44,232.22 360.37,232.21 C358.88,232.00 357.28,233.12 355.06,235.92 C351.65,240.23 346.06,250.46 344.23,255.75 C343.10,259.00 341.66,259.88 340.50,258.00 C340.16,257.45 338.78,257.00 337.44,257.00 C334.01,257.00 308.12,263.50 300.14,266.37 C296.49,267.69 289.49,269.76 284.59,270.99 C274.00,273.63 255.18,282.41 249.34,287.43 C240.80,294.77 238.97,304.13 244.92,310.07 C246.92,312.08 248.65,313.30 252.79,313.99 C250.97,313.85 249.75,313.70 249.36,313.57 C247.43,312.90 246.51,314.16 239.86,326.66 L 232.50 340.50 L 232.24 277.23 L 231.99 213.96 L 237.37 206.23 C240.33,201.98 244.13,196.02 245.81,193.00 C249.25,186.82 255.43,171.88 256.43,167.32 L 257.07 164.39 C258.83,164.70 259.95,164.89 260.08,164.91 C260.68,165.00 263.32,151.96 262.80,151.49 C262.73,151.43 261.67,151.19 259.97,150.85 C260.75,150.68 262.22,149.60 263.46,148.26 C273.95,136.94 264.84,118.94 249.28,120.23 C239.83,121.01 234.00,127.43 234.00,137.04 C234.00,143.47 234.75,145.61 240.80,147.30 C238.33,146.84 236.47,146.49 235.75,146.34 C233.83,145.94 232.98,146.18 232.94,147.13 C232.91,147.89 232.51,150.74 232.06,153.49 C232.02,153.76 231.98,154.02 231.94,154.28 C231.95,149.75 231.97,142.73 232.00,135.03 C232.07,117.95 232.42,111.35 233.30,110.79 C233.96,110.37 242.15,110.03 251.50,110.02 L 268.50 110.01 L 280.00 118.98 C286.33,123.92 291.84,127.97 292.25,127.98 C292.66,127.99 292.96,127.21 292.91,126.25 C292.88,125.61 290.95,123.31 288.12,120.43 C290.52,122.59 292.20,124.00 292.40,124.00 C292.73,124.00 293.00,108.89 293.00,90.42 L 293.00 56.85 L 290.08 53.92 L 287.15 51.00 L 220.23 51.00 L 224.92 50.79 L 231.50 50.50 L 231.19 46.50 C231.02,44.30 229.90,40.45 228.69,37.95 L 226.50 33.41 L 235.00 36.35 C246.83,40.46 259.33,41.07 271.04,38.11 C281.14,35.57 297.23,27.82 313.00,17.91 C326.47,9.44 332.20,6.76 342.70,4.01 C371.37,-3.50 412.24,0.44 440.56,13.45 C459.69,22.24 474.95,36.58 484.94,55.18 C498.99,81.33 501.88,118.52 492.43,151.57 C487.99,167.11 483.35,175.11 470.98,188.54 C463.88,196.25 458.87,202.70 456.87,206.70 C454.08,212.29 453.81,213.62 454.17,220.20 C454.74,230.91 457.17,234.86 472.98,250.82 C486.45,264.41 493.03,273.01 498.76,284.50 C512.56,312.19 515.77,346.43 506.67,368.96 C499.58,386.51 484.20,403.57 462.20,418.28 L 453.01 424.42 C452.54,420.71 452.36,417.59 452.60,415.74 C452.91,413.41 452.46,404.08 451.61,395.00 C450.75,385.92 449.13,366.12 448.00,351.00 C445.59,318.70 445.01,315.28 440.27,305.81 C432.92,291.12 418.98,280.90 403.35,278.75 C399.03,278.15 395.17,277.18 394.77,276.58 C394.36,275.99 394.02,274.25 394.02,272.72 C394.01,271.25 393.39,269.82 392.62,269.41 C393.60,269.80 395.38,269.90 397.88,269.65 C400.90,269.35 403.99,267.99 407.84,265.27 ZM 199.50 510.92 C97.54,507.02 18.24,492.76 3.25,475.64 C-0.34,471.54 -0.72,469.30 1.46,465.07 C5.91,456.47 31.13,447.13 68.00,440.42 C75.97,438.98 82.66,437.64 82.85,437.46 C83.05,437.27 79.05,435.04 73.97,432.48 C58.60,424.77 37.32,410.52 31.60,404.13 L 29.69 402.00 L 114.35 402.00 C160.91,402.00 199.00,402.21 199.00,402.48 C199.00,402.74 198.10,404.43 197.00,406.23 C194.52,410.30 194.44,411.24 197.65,414.92 L 194.65 411.64 L 193.18 413.86 C191.54,416.33 174.57,431.09 171.48,432.74 C168.42,434.37 143.40,434.23 134.52,432.54 C125.68,430.84 117.18,427.24 111.73,422.89 C103.91,416.64 100.37,421.47 106.26,430.34 C114.64,442.95 127.69,454.09 140.44,459.51 C146.49,462.08 146.86,462.43 146.35,464.99 C145.87,467.41 146.72,468.53 153.91,474.86 C159.02,479.36 162.88,482.00 164.35,482.00 C165.91,482.00 168.72,479.88 172.84,475.59 C178.02,470.20 179.00,468.61 179.00,465.63 C179.00,463.69 179.50,461.01 180.10,459.68 C180.90,457.92 180.82,456.91 179.25,454.36 C180.75,456.34 182.69,458.09 185.15,459.72 L 189.28 462.45 L 203.27 455.11 C203.68,454.89 204.10,454.67 204.52,454.45 C203.40,455.07 202.51,455.60 202.00,455.94 C200.92,456.68 202.93,456.97 209.18,456.98 C215.75,457.00 218.24,456.62 219.43,455.43 C220.96,453.90 221.48,448.50 220.46,447.26 C221.64,446.83 222.63,446.52 223.38,446.35 C231.35,444.50 245.46,437.61 256.79,430.04 C261.75,426.72 266.13,424.00 266.52,424.00 C266.90,424.00 271.11,427.10 275.86,430.88 C292.37,444.03 309.17,454.14 323.44,459.51 C331.08,462.39 350.08,466.00 357.57,466.00 C365.05,466.00 374.83,462.70 379.70,458.52 C383.72,455.08 389.00,446.25 389.00,442.96 C389.00,442.10 387.63,441.04 384.84,439.76 L 390.50 442.15 L 393.33 438.83 C398.36,432.91 407.36,418.67 413.00,407.71 C416.03,401.83 418.76,397.02 419.08,397.01 C419.39,397.01 421.13,402.27 422.93,408.72 C424.74,415.16 426.81,420.90 427.54,421.47 C428.27,422.04 429.61,425.20 430.52,428.50 C431.24,431.10 432.02,433.80 432.83,436.53 C432.59,436.22 432.11,436.00 431.56,436.00 C430.77,436.00 429.84,436.45 429.50,437.00 C429.16,437.55 429.81,438.00 430.94,438.00 C432.02,438.00 432.92,437.59 432.99,437.07 C438.15,454.32 444.63,472.59 446.55,474.88 C448.05,476.65 451.74,478.89 455.77,480.45 C459.47,481.88 464.30,484.17 466.50,485.52 C469.34,487.28 470.35,487.96 471.19,487.80 C471.76,487.68 472.25,487.18 473.17,486.35 C475.76,484.00 475.44,481.50 472.25,479.12 C469.83,477.31 469.74,477.06 471.50,477.04 C472.60,477.03 479.34,478.54 486.48,480.39 C492.37,481.92 497.76,483.07 499.86,483.27 C499.11,483.73 498.48,484.00 498.05,484.00 C497.01,484.00 493.99,484.93 491.33,486.07 C469.17,495.57 413.60,504.61 350.50,508.97 C309.07,511.83 244.94,512.66 199.50,510.92 ZM 313.72 205.53 L 324.45 197.07 L 363.31 196.78 L 402.17 196.50 L 408.00 189.97 L 408.00 169.10 C408.00,149.81 407.85,148.04 406.03,145.86 L 404.07 143.50 L 404.03 164.82 C404.02,173.06 403.83,179.96 403.53,184.07 C403.82,180.02 404.00,173.25 404.00,165.14 L 404.00 144.15 L 401.41 141.08 L 398.82 138.00 L 306.18 138.00 L 303.59 141.08 L 301.00 144.15 L 301.00 211.21 L 307.75 205.20 C307.84,205.11 307.94,205.03 308.04,204.94 C301.35,211.37 299.62,214.00 302.00,214.00 C302.54,214.00 307.82,210.19 313.72,205.53 ZM 54.00 24.23 C54.00,21.65 73.41,11.81 86.81,7.60 C103.11,2.49 116.73,0.59 137.00,0.62 C156.68,0.65 163.36,1.62 177.30,6.47 C184.34,8.92 208.00,22.53 208.00,24.14 C208.00,24.61 173.48,25.00 131.00,25.00 C88.65,25.00 54.00,24.66 54.00,24.23 ZM 418.50 130.13 C424.57,131.41 425.58,131.13 427.07,127.75 C428.91,123.56 433.11,122.82 436.58,126.07 L 438.95 128.30 L 443.06 125.58 C446.10,123.57 446.98,122.43 446.47,121.18 C444.86,117.30 444.85,115.87 446.41,113.50 C447.63,111.64 448.92,111.00 451.46,111.00 C454.76,111.00 454.90,110.84 455.58,106.34 C456.16,102.46 455.97,101.45 454.45,100.34 C453.44,99.60 452.06,99.00 451.39,99.00 C450.71,99.00 449.85,97.61 449.48,95.92 C448.96,93.54 449.29,92.32 450.90,90.60 C453.54,87.80 453.54,87.77 450.39,83.01 C447.82,79.14 447.73,79.09 444.94,80.53 C442.68,81.70 441.57,81.76 439.55,80.84 C437.48,79.90 437.00,78.98 437.00,75.92 C437.00,72.22 436.93,72.15 431.95,71.08 C429.17,70.49 426.73,70.00 426.53,70.00 C426.32,70.00 425.65,71.53 425.04,73.39 C423.52,77.98 419.56,78.85 415.92,75.40 L 413.34 72.96 L 409.42 75.59 C407.26,77.04 405.33,78.39 405.12,78.58 C404.90,78.78 405.31,80.32 406.01,82.02 C407.95,86.71 405.87,90.00 400.96,90.00 C397.46,90.00 397.23,90.20 396.64,93.75 C395.62,99.94 395.85,100.75 398.96,101.84 C403.13,103.29 404.02,107.29 400.91,110.59 C398.59,113.07 398.59,113.08 400.46,116.55 C403.25,121.74 404.38,122.37 407.71,120.65 C410.28,119.32 410.79,119.34 412.72,120.83 C414.03,121.85 415.00,123.87 415.19,126.00 C415.45,128.97 415.95,129.59 418.50,130.13 ZM 357.75 81.31 C361.91,82.40 363.71,81.94 364.82,79.50 C366.14,76.59 369.45,76.19 372.12,78.61 C373.76,80.09 374.13,80.04 376.95,78.04 C380.38,75.59 380.38,75.59 378.98,72.96 C377.49,70.18 379.76,67.00 383.24,67.00 C384.76,67.00 386.00,66.61 386.00,66.12 C386.00,65.64 386.28,63.85 386.62,62.15 C387.16,59.45 386.90,58.91 384.62,58.05 C381.58,56.89 381.12,53.63 383.61,50.88 C385.09,49.24 385.04,48.87 383.00,46.00 C381.11,43.35 380.35,42.98 377.85,43.53 C374.34,44.30 372.00,42.68 372.00,39.48 C372.00,35.27 364.54,34.46 363.00,38.50 C361.91,41.37 358.02,41.93 356.00,39.50 C354.33,37.49 353.58,37.60 350.42,40.31 C348.17,42.25 347.91,42.96 348.82,44.66 C350.25,47.34 347.79,51.00 344.55,51.00 C340.32,51.00 339.49,57.99 343.50,59.82 C346.41,61.14 346.81,64.45 344.39,67.12 C342.91,68.76 342.96,69.13 344.96,71.95 C347.41,75.38 347.41,75.38 350.04,73.98 C352.79,72.51 356.00,74.76 356.00,78.17 C356.00,79.88 356.63,81.02 357.75,81.31 ZM 334.59 366.13 L 310.97 340.80 L 287.07 315.16 L 269.71 314.74 C275.43,314.73 282.68,314.60 291.94,314.42 C325.29,313.75 327.72,313.82 328.34,315.44 C328.70,316.39 330.34,328.94 331.98,343.33 C333.06,352.81 333.91,360.24 334.59,366.13 ZM 455.60 438.78 C456.53,442.27 457.13,442.60 461.00,443.61 C487.02,450.40 496.12,453.66 504.45,459.18 C509.27,462.37 512.00,466.33 512.00,470.14 C512.00,472.12 506.14,478.50 501.85,481.87 C501.95,481.57 502.00,481.26 502.00,480.94 C502.00,479.93 502.72,478.70 503.60,478.20 C505.67,477.04 505.05,473.84 502.49,472.53 C501.40,471.96 500.50,470.87 500.50,470.09 C500.50,468.30 490.33,464.84 475.11,461.45 C468.29,459.94 462.75,458.14 461.69,457.10 C459.98,455.42 457.54,447.44 455.60,438.78 ZM 267.26 494.29 C268.40,495.28 269.95,495.85 270.70,495.56 C271.46,495.27 274.64,494.30 277.79,493.39 C286.26,490.96 289.00,489.31 289.00,486.67 C289.00,484.01 285.18,472.08 283.74,470.25 C282.25,468.36 278.31,468.73 269.75,471.58 C263.49,473.67 261.88,474.62 261.40,476.54 C260.60,479.72 264.67,492.04 267.26,494.29 ZM 20.86 308.44 C19.07,308.60 17.40,308.76 16.08,308.89 L 9.66 309.50 L 8.18 313.96 C6.91,317.75 6.89,319.18 8.00,323.46 C9.56,329.44 10.58,376.00 9.16,376.00 C7.98,376.00 4.45,367.78 2.44,360.34 C0.24,352.18 -0.48,336.13 0.90,325.78 C2.24,315.77 5.66,301.63 6.84,301.23 C7.29,301.07 7.46,299.68 7.23,298.12 L 7.05 296.91 L 7.38 298.90 C7.71,300.88 7.98,304.02 7.99,305.89 L 8.00 309.27 L 18.75 308.58 C19.45,308.54 20.16,308.49 20.86,308.44 ZM 237.00 396.45 C237.00,394.48 245.73,384.49 254.44,376.48 C262.83,368.76 266.19,364.80 270.54,357.47 C271.40,356.02 272.06,356.97 274.44,363.11 C276.01,367.18 278.61,373.13 280.22,376.35 C281.82,379.57 282.93,382.40 282.69,382.65 C282.44,382.89 280.15,382.56 277.59,381.92 C270.84,380.22 258.44,381.19 253.33,383.81 C251.03,385.00 246.42,388.49 243.08,391.59 C239.74,394.68 237.00,396.87 237.00,396.45 ZM 430.99 110.51 C427.11,112.51 424.14,112.38 420.31,110.05 C416.27,107.58 415.00,105.18 415.00,99.99 C415.00,96.74 415.63,95.21 417.92,92.92 C420.37,90.47 421.65,90.00 425.85,90.00 C430.10,90.00 431.31,90.46 433.92,93.08 C436.38,95.54 437.00,97.00 437.00,100.35 C437.00,105.19 435.11,108.37 430.99,110.51 ZM 270.50 244.47 C277.11,247.34 278.83,248.14 279.98,247.65 C280.46,247.44 280.84,247.02 281.43,246.43 C283.24,244.62 283.29,243.23 281.98,233.12 C280.93,225.03 279.85,222.99 276.63,223.02 C274.14,223.03 261.61,232.00 260.08,234.86 C258.48,237.85 261.31,240.47 270.50,244.47 ZM 278.06 490.87 C273.12,492.50 270.74,493.30 269.20,492.50 C267.74,491.75 267.03,489.56 265.59,485.30 C264.17,481.06 263.36,477.24 263.79,476.81 C264.73,475.87 278.81,471.00 280.58,471.00 C281.26,471.00 282.99,474.47 284.41,478.71 C287.46,487.77 287.45,487.77 278.06,490.87 ZM 474.09 345.85 C475.41,349.09 477.63,347.15 478.50,342.02 C479.10,338.47 479.47,338.10 483.02,337.50 C490.28,336.27 490.35,333.23 483.14,332.06 C480.06,331.56 479.57,331.02 478.32,326.75 C476.81,321.55 474.37,320.40 473.52,324.50 L 472.48 329.50 C472.12,331.26 471.30,332.00 469.73,332.01 C462.13,332.06 460.72,335.40 467.54,337.22 C471.12,338.18 472.18,338.96 472.60,340.97 C472.90,342.36 473.57,344.56 474.09,345.85 ZM 78.10 481.85 C79.83,486.83 81.88,485.66 82.95,479.08 C83.46,475.96 83.95,475.50 87.49,474.76 C94.73,473.26 94.64,470.28 87.32,469.09 C83.86,468.52 83.48,468.14 82.91,464.68 C81.69,457.18 78.68,457.43 77.39,465.13 C76.83,468.48 76.47,468.81 72.77,469.30 C65.10,470.33 65.36,473.31 73.25,474.63 C75.89,475.07 77.00,475.77 77.00,476.98 C77.00,477.93 77.49,480.12 78.10,481.85 ZM 369.71 64.75 C367.41,67.27 361.61,67.79 358.91,65.72 C354.79,62.55 353.99,57.56 356.98,53.75 C360.93,48.73 368.65,49.49 371.60,55.19 C373.32,58.51 372.74,61.45 369.71,64.75 ZM 280.00 241.65 C280.00,243.69 279.51,244.98 278.75,244.94 C276.04,244.81 262.48,238.05 262.20,236.69 C261.84,234.94 274.03,226.00 276.79,226.00 C278.41,226.00 278.82,226.96 279.36,232.15 C279.71,235.53 280.00,239.80 280.00,241.65 ZM 311.98 283.35 C305.22,285.22 304.00,285.35 304.00,284.15 C304.00,281.98 307.93,280.00 312.27,280.00 C318.95,280.00 318.82,281.44 311.98,283.35 ZM 111.50 387.93 L 72.72 387.96 C55.49,387.98 45.00,387.97 38.38,387.56 C44.52,387.83 54.87,387.92 72.50,387.92 L 111.50 387.93 ZM 382.25 438.67 C382.22,438.66 382.20,438.65 382.17,438.64 C376.49,436.41 370.70,433.11 365.31,429.18 C370.47,432.88 376.17,436.09 382.25,438.67 ZM 175.22 441.59 C175.40,445.71 176.19,449.10 177.74,452.00 C175.93,449.03 175.45,446.85 175.22,441.59 ZM 352.62 417.95 C348.36,413.35 344.89,408.51 342.65,403.82 C342.63,403.79 342.61,403.75 342.60,403.72 C345.17,408.70 348.56,413.49 352.62,417.95 ZM 320.85 193.00 L 316.61 196.94 C316.93,196.62 317.21,196.33 317.44,196.09 L 320.37 193.00 L 320.85 193.00 ZM 29.44 386.08 C27.18,385.17 26.25,383.81 25.03,381.81 C25.97,383.35 27.81,385.12 29.44,386.08 ZM 392.76 266.72 C392.96,266.47 393.18,266.20 393.43,265.90 C394.81,264.26 395.78,262.53 396.33,260.90 C395.77,262.96 394.61,265.04 392.88,266.60 C392.84,266.64 392.80,266.68 392.76,266.72 ZM 201.81 419.53 L 201.96 419.70 L 199.23 421.00 C198.62,421.29 197.37,421.83 195.74,422.51 C197.35,421.82 198.59,421.25 199.18,420.94 L 201.81 419.53 ZM 336.64 383.19 C336.22,380.54 335.88,377.75 335.60,374.81 C336.03,378.39 336.36,381.08 336.64,383.19 ZM 35.52 307.12 L 33.21 307.32 C34.21,307.17 34.94,307.08 35.52,307.12 ZM 275.80 108.94 L 273.68 107.00 L 273.74 107.00 L 275.80 108.94 ZM 392.45 269.34 C391.93,269.14 391.68,268.90 391.73,268.49 C391.76,268.85 392.01,269.13 392.45,269.34 ZM 402.97 188.06 C400.44,192.79 398.54,193.00 358.47,193.00 C398.57,193.00 400.44,192.78 402.97,188.06 Z" fill="rgba(146,146,223,1)"/>
<path d="M 48.64 205.16 C48.45,204.31 45.79,206.51 41.81,211.02 C38.89,214.33 33.92,221.19 30.76,226.27 C27.61,231.35 24.60,236.18 24.07,237.00 C23.46,237.96 23.10,203.95 23.06,143.00 C23.01,49.99 23.06,47.42 24.96,44.30 C28.53,38.43 30.56,38.00 54.31,38.00 L 75.71 38.00 L 76.64 41.23 C77.18,43.14 78.95,45.40 80.93,46.73 C84.28,48.99 84.50,49.00 121.07,49.00 L 157.85 49.00 L 160.85 46.47 C162.50,45.08 164.15,42.58 164.52,40.92 L 165.18 37.90 L 188.01 38.20 C210.65,38.50 210.87,38.52 213.44,40.94 C214.87,42.28 216.55,45.09 217.18,47.19 L 218.32 51.00 L 195.85 51.00 L 190.00 56.85 L 190.00 78.29 C190.00,98.38 190.13,99.89 192.05,102.33 C190.13,99.90 190.00,98.35 189.97,78.12 L 189.93 56.50 L 187.97 58.86 C186.15,61.04 186.00,62.81 186.00,82.18 C186.00,94.55 186.42,103.91 187.02,105.04 C188.92,108.58 192.22,109.49 205.00,110.00 L 217.50 110.50 L 217.76 150.89 L 218.02 191.29 L 213.81 196.74 C211.50,199.75 206.58,204.97 202.89,208.35 L 196.17 214.50 L 196.12 215.61 C196.12,213.62 196.04,212.22 195.86,211.86 C195.48,211.11 194.46,208.47 193.60,205.99 C191.43,199.79 187.21,194.98 180.86,191.47 L 175.50 188.50 L 125.50 188.19 C98.00,188.01 73.19,188.15 70.36,188.49 C63.51,189.32 55.47,194.26 51.56,200.03 C50.31,201.87 49.36,203.45 48.64,205.16 ZM 133.31 105.02 C133.66,102.05 133.78,99.45 133.57,99.24 C132.70,98.37 117.91,97.79 113.51,98.45 L 108.74 99.16 L 109.23 103.50 C108.78,100.34 108.19,99.00 107.30,99.00 C104.43,99.00 90.38,104.22 85.06,107.25 C78.31,111.11 66.12,122.58 62.09,128.86 C60.43,131.45 58.33,136.46 57.42,140.00 C52.70,158.42 62.94,175.13 81.05,178.86 C80.93,178.84 80.83,178.83 80.75,178.81 L 77.00 178.13 L 77.00 188.00 L 166.00 188.00 L 166.00 178.13 L 164.66 178.37 L 168.59 176.32 C179.85,170.43 185.41,161.45 185.36,149.27 C185.33,142.96 184.84,141.07 181.56,134.42 C176.30,123.79 164.50,111.97 153.50,106.31 C146.07,102.49 135.13,98.53 134.30,99.37 C134.10,99.57 133.66,102.10 133.31,105.02 ZM 195.63 225.67 L 195.44 229.39 L 194.72 244.29 L 198.86 241.96 C201.13,240.68 206.18,237.24 210.06,234.32 C213.95,231.39 217.33,229.00 217.57,229.00 C217.80,229.00 218.00,260.12 218.00,298.14 L 218.00 367.29 L 206.89 388.00 L 169.20 387.93 C136.35,387.87 132.05,387.70 135.75,386.54 C148.76,382.47 158.94,371.05 161.88,357.20 C163.16,351.15 163.36,344.65 162.25,345.21 C154.89,348.91 150.32,350.97 144.97,352.11 C167.37,345.89 184.70,328.22 190.50,305.50 C191.52,301.54 192.55,288.30 193.53,266.50 C194.26,250.34 195.15,233.17 195.63,225.67 ZM 30.27 386.52 C28.49,385.75 26.13,383.63 25.02,381.81 C23.17,378.77 23.01,376.79 23.00,357.75 L 23.00 337.00 L 25.54 337.00 C29.03,337.00 35.38,333.61 37.90,330.40 C42.39,324.69 42.67,318.41 38.78,310.63 C37.35,307.78 36.85,307.05 35.04,307.11 L 38.26 306.71 L 37.66 300.21 C37.32,296.64 36.93,293.61 36.77,293.49 C36.69,293.42 34.65,293.50 31.50,293.68 C33.30,293.38 34.36,292.92 35.01,292.13 C36.08,290.83 36.04,288.61 36.35,284.62 C37.15,274.16 39.99,263.07 44.61,252.31 C46.41,248.11 47.31,245.84 47.67,243.68 C48.06,253.32 48.55,265.37 48.94,275.00 C50.08,303.64 50.90,308.12 57.25,320.35 C65.51,336.26 80.41,347.61 99.50,352.54 C100.65,352.83 102.41,353.08 104.59,353.28 C99.41,353.00 97.37,352.33 93.07,350.74 C88.99,349.23 84.62,347.32 83.36,346.50 C82.10,345.67 80.77,345.00 80.40,345.00 C80.04,345.00 79.95,348.29 80.21,352.30 C81.22,368.06 90.80,380.48 106.22,386.03 L 111.50 387.93 L 72.50 387.92 C41.22,387.92 32.86,387.64 30.27,386.52 ZM 90.45 160.59 C84.13,157.84 79.13,148.54 80.60,142.29 C81.74,137.46 85.06,133.01 89.06,130.97 C92.64,129.14 95.05,129.00 121.81,129.00 C150.14,129.00 150.77,129.04 154.10,131.26 C158.05,133.88 162.00,141.04 162.00,145.55 C162.00,150.72 157.96,157.10 153.04,159.70 C148.79,161.94 148.01,162.00 121.09,161.96 C100.42,161.93 92.74,161.59 90.45,160.59 ZM 418.50 130.13 C415.95,129.59 415.45,128.97 415.19,126.00 C415.00,123.87 414.03,121.85 412.72,120.83 C410.79,119.34 410.28,119.32 407.71,120.65 C404.38,122.37 403.25,121.74 400.46,116.55 C398.59,113.08 398.59,113.07 400.91,110.59 C404.02,107.29 403.13,103.29 398.96,101.84 C395.85,100.75 395.62,99.94 396.64,93.75 C397.23,90.20 397.46,90.00 400.96,90.00 C405.87,90.00 407.95,86.71 406.01,82.02 C405.31,80.32 404.90,78.78 405.12,78.58 C405.33,78.39 407.26,77.04 409.42,75.59 L 413.34 72.96 L 415.92 75.40 C419.56,78.85 423.52,77.98 425.04,73.39 C425.65,71.53 426.32,70.00 426.53,70.00 C426.73,70.00 429.17,70.49 431.95,71.08 C436.93,72.15 437.00,72.22 437.00,75.92 C437.00,78.98 437.48,79.90 439.55,80.84 C441.57,81.76 442.68,81.70 444.94,80.53 C447.73,79.09 447.82,79.14 450.39,83.01 C453.54,87.77 453.54,87.80 450.90,90.60 C449.29,92.32 448.96,93.54 449.48,95.92 C449.85,97.61 450.71,99.00 451.39,99.00 C452.06,99.00 453.44,99.60 454.45,100.34 C455.97,101.45 456.16,102.46 455.58,106.34 C454.90,110.84 454.76,111.00 451.46,111.00 C448.92,111.00 447.63,111.64 446.41,113.50 C444.85,115.87 444.86,117.30 446.47,121.18 C446.98,122.43 446.10,123.57 443.06,125.58 L 438.95 128.30 L 436.58 126.07 C433.11,122.82 428.91,123.56 427.07,127.75 C425.58,131.13 424.57,131.41 418.50,130.13 ZM 357.75 81.31 C356.63,81.02 356.00,79.88 356.00,78.17 C356.00,74.76 352.79,72.51 350.04,73.98 C347.41,75.38 347.41,75.38 344.96,71.95 C342.96,69.13 342.91,68.76 344.39,67.12 C346.81,64.45 346.41,61.14 343.50,59.82 C339.49,57.99 340.32,51.00 344.55,51.00 C347.79,51.00 350.25,47.34 348.82,44.66 C347.91,42.96 348.17,42.25 350.42,40.31 C353.58,37.60 354.33,37.49 356.00,39.50 C358.02,41.93 361.91,41.37 363.00,38.50 C364.54,34.46 372.00,35.27 372.00,39.48 C372.00,42.68 374.34,44.30 377.85,43.53 C380.35,42.98 381.11,43.35 383.00,46.00 C385.04,48.87 385.09,49.24 383.61,50.88 C381.12,53.63 381.58,56.89 384.62,58.05 C386.90,58.91 387.16,59.45 386.62,62.15 C386.28,63.85 386.00,65.64 386.00,66.12 C386.00,66.61 384.76,67.00 383.24,67.00 C379.76,67.00 377.49,70.18 378.98,72.96 C380.38,75.59 380.38,75.59 376.95,78.04 C374.13,80.04 373.76,80.09 372.12,78.61 C369.45,76.19 366.14,76.59 364.82,79.50 C363.71,81.94 361.91,82.40 357.75,81.31 ZM 430.99 110.51 C435.11,108.37 437.00,105.19 437.00,100.35 C437.00,97.00 436.38,95.54 433.92,93.08 C431.31,90.46 430.10,90.00 425.85,90.00 C421.65,90.00 420.37,90.47 417.92,92.92 C415.63,95.21 415.00,96.74 415.00,99.99 C415.00,105.18 416.27,107.58 420.31,110.05 C424.14,112.38 427.11,112.51 430.99,110.51 ZM 369.71 64.75 C372.74,61.45 373.32,58.51 371.60,55.19 C368.65,49.49 360.93,48.73 356.98,53.75 C353.99,57.56 354.79,62.55 358.91,65.72 C361.61,67.79 367.41,67.27 369.71,64.75 ZM 143.44 149.78 C145.43,146.94 145.42,144.04 143.40,141.17 C141.11,137.89 135.99,138.50 134.19,142.27 C130.98,149.00 139.27,155.73 143.44,149.78 ZM 107.44 149.78 C110.76,145.05 108.46,139.00 103.34,139.00 C99.48,139.00 98.00,140.63 98.00,144.87 C98.00,151.28 104.15,154.47 107.44,149.78 ZM 292.27 123.94 C292.67,123.47 293.00,108.58 293.00,90.42 C293.00,108.89 292.73,124.00 292.40,124.00 C292.38,124.00 292.33,123.98 292.27,123.94 ZM 130.38 112.71 C131.94,111.15 132.86,108.74 133.30,105.07 C132.78,109.50 131.76,112.09 129.49,113.51 C129.78,113.28 130.08,113.01 130.38,112.71 ZM 120.28 114.98 C113.64,114.80 111.05,113.17 109.90,107.97 C111.09,113.08 113.79,114.79 120.28,114.98 ZM 6.81 295.41 L 6.79 295.30 L 14.40 294.86 L 6.80 295.41 ZM 31.97 307.48 C29.21,307.80 23.77,308.26 18.75,308.58 L 17.77 308.64 L 18.25 308.61 C23.07,308.29 28.74,307.83 31.97,307.48 ZM 47.46 209.12 C47.60,208.14 47.77,207.44 47.95,207.09 C47.95,207.08 47.96,207.08 47.96,207.08 C47.77,207.72 47.60,208.40 47.46,209.12 ZM 273.74 107.00 L 273.75 107.00 L 274.72 107.92 L 273.74 107.00 Z" fill="rgba(189,189,227,1)"/>
<path d="M 99.50 352.54 C80.41,347.61 65.51,336.26 57.25,320.35 C50.90,308.12 50.08,303.64 48.94,275.00 C48.38,260.98 47.60,241.83 47.21,232.45 C46.29,210.32 46.71,207.20 51.56,200.03 C55.47,194.26 63.51,189.32 70.36,188.49 C73.19,188.15 98.00,188.01 125.50,188.19 L 175.50 188.50 L 180.86 191.47 C187.21,194.98 191.43,199.79 193.60,205.99 C194.46,208.47 195.48,211.11 195.86,211.86 C196.23,212.60 196.20,217.78 195.78,223.36 C195.37,228.94 194.35,248.35 193.53,266.50 C192.55,288.30 191.52,301.54 190.50,305.50 C184.53,328.88 166.35,346.91 143.00,352.62 C135.82,354.38 106.41,354.32 99.50,352.54 ZM 311.98 283.35 C316.68,282.04 318.21,280.95 316.55,280.40 L 319.76 280.58 C326.90,280.97 332.36,281.77 333.70,282.60 C336.12,284.12 338.55,283.62 339.38,281.44 C339.68,280.67 340.57,280.28 341.36,280.58 C342.15,280.89 343.41,280.26 344.16,279.19 C344.91,278.12 346.42,277.07 347.51,276.85 C349.22,276.52 349.67,277.32 350.73,282.46 C352.31,290.12 358.52,303.01 363.87,309.75 C366.17,312.64 368.66,315.00 369.42,315.00 C371.99,315.00 377.26,307.64 382.06,297.37 C384.76,291.59 388.59,285.23 390.86,282.77 C393.91,279.46 394.62,278.43 394.48,275.96 C394.57,276.22 394.67,276.44 394.77,276.58 C395.17,277.18 399.03,278.15 403.35,278.75 C418.98,280.90 432.92,291.12 440.27,305.81 C445.01,315.28 445.59,318.70 448.00,351.00 C449.13,366.12 450.75,385.92 451.61,395.00 C452.46,404.08 452.91,413.41 452.60,415.74 C452.13,419.34 453.27,427.68 454.99,435.96 C454.16,432.18 453.43,428.37 452.94,424.97 C452.27,420.41 452.10,418.28 451.06,417.69 C450.07,417.12 448.28,417.95 444.50,419.39 C442.30,420.23 437.76,420.93 434.40,420.96 L 428.30 421.00 L 429.75 426.03 C428.96,423.75 428.08,421.89 427.54,421.47 C426.81,420.90 424.74,415.16 422.93,408.72 C421.13,402.27 419.39,397.01 419.08,397.01 C418.76,397.02 416.03,401.83 413.00,407.71 C407.36,418.67 398.36,432.91 393.33,438.83 L 390.50 442.15 L 382.32 438.70 C359.89,429.23 342.71,411.03 338.15,391.93 C337.00,387.09 336.66,384.44 331.98,343.33 C330.34,328.94 328.70,316.39 328.34,315.44 C327.72,313.82 325.29,313.75 291.94,314.42 C252.97,315.20 249.74,314.90 244.92,310.07 C238.97,304.13 240.80,294.77 249.34,287.43 C253.74,283.65 265.49,277.74 275.56,273.92 C273.73,275.39 272.97,277.91 271.99,283.06 C270.89,288.83 272.24,294.35 275.26,296.47 C276.46,297.31 279.41,298.00 281.81,298.00 C285.84,298.00 287.03,297.30 297.10,288.96 L 304.45 282.88 C304.16,283.29 304.00,283.72 304.00,284.15 C304.00,285.35 305.22,285.22 311.98,283.35 ZM 82.00 179.04 C63.30,175.71 52.62,158.74 57.42,140.00 C58.33,136.46 60.43,131.45 62.09,128.86 C66.12,122.58 78.31,111.11 85.06,107.25 C90.38,104.22 104.43,99.00 107.30,99.00 C108.32,99.00 108.94,100.74 109.42,104.96 C110.33,113.01 112.76,115.00 121.68,115.00 C129.91,115.00 132.38,112.89 133.30,105.07 C133.65,102.13 134.10,99.57 134.30,99.37 C135.13,98.53 146.07,102.49 153.50,106.31 C164.50,111.97 176.30,123.79 181.56,134.42 C184.84,141.07 185.33,142.96 185.36,149.27 C185.41,161.45 179.85,170.43 168.59,176.32 L 162.50 179.50 L 124.50 179.67 C103.60,179.76 84.47,179.48 82.00,179.04 ZM 150.50 166.90 C152.91,166.29 156.72,164.22 158.98,162.29 C164.64,157.44 167.00,152.41 167.00,145.20 C167.00,137.36 163.96,131.56 157.58,127.25 L 152.77 124.00 L 121.85 124.00 C87.75,124.00 87.01,124.12 80.80,130.66 C70.00,142.04 75.43,161.69 90.67,166.38 C96.71,168.23 143.58,168.64 150.50,166.90 ZM 133.65 247.68 C143.43,242.72 149.14,233.37 149.37,221.93 C149.48,216.06 149.18,214.84 147.08,212.59 L 144.65 210.00 L 98.27 210.00 L 95.64 212.64 C93.41,214.86 93.00,216.15 93.01,220.89 C93.01,228.05 94.32,232.68 97.78,237.84 C105.80,249.78 121.18,254.00 133.65,247.68 ZM 267.26 494.29 C264.67,492.04 260.60,479.72 261.40,476.54 C261.88,474.62 263.49,473.67 269.75,471.58 C278.31,468.73 282.25,468.36 283.74,470.25 C285.18,472.08 289.00,484.01 289.00,486.67 C289.00,489.31 286.26,490.96 277.79,493.39 C274.64,494.30 271.46,495.27 270.70,495.56 C269.95,495.85 268.40,495.28 267.26,494.29 ZM 246.50 162.52 C239.35,161.26 233.21,160.39 232.85,160.60 C231.59,161.36 231.26,158.40 232.06,153.49 C232.51,150.74 232.91,147.89 232.94,147.13 C232.98,146.18 233.83,145.94 235.75,146.34 C237.26,146.65 243.90,147.88 250.50,149.07 C257.10,150.26 262.63,151.35 262.80,151.49 C263.32,151.96 260.68,165.00 260.08,164.91 C259.76,164.86 253.65,163.79 246.50,162.52 ZM 7.99 305.89 C7.98,304.03 7.71,300.90 7.39,298.96 L 6.80 295.41 L 21.65 294.33 C29.82,293.74 36.62,293.36 36.77,293.49 C36.93,293.61 37.32,296.64 37.66,300.21 L 38.26 306.71 L 33.38 307.32 C30.70,307.66 23.89,308.24 18.25,308.61 L 8.00 309.29 ZM 270.50 244.47 C261.31,240.47 258.48,237.85 260.08,234.86 C261.61,232.00 274.14,223.03 276.63,223.02 C279.85,222.99 280.93,225.03 281.98,233.12 C283.29,243.23 283.24,244.62 281.43,246.43 C280.84,247.02 280.46,247.44 279.98,247.65 C278.83,248.14 277.11,247.34 270.50,244.47 ZM 278.06 490.87 C287.45,487.77 287.46,487.77 284.41,478.71 C282.99,474.47 281.26,471.00 280.58,471.00 C278.81,471.00 264.73,475.87 263.79,476.81 C263.36,477.24 264.17,481.06 265.59,485.30 C267.03,489.56 267.74,491.75 269.20,492.50 C270.74,493.30 273.12,492.50 278.06,490.87 ZM 474.09 345.85 C473.57,344.56 472.90,342.36 472.60,340.97 C472.18,338.96 471.12,338.18 467.54,337.22 C460.72,335.40 462.13,332.06 469.73,332.01 C471.30,332.00 472.12,331.26 472.48,329.50 L 473.52 324.50 C474.37,320.40 476.81,321.55 478.32,326.75 C479.57,331.02 480.06,331.56 483.14,332.06 C490.35,333.23 490.28,336.27 483.02,337.50 C479.47,338.10 479.10,338.47 478.50,342.02 C477.63,347.15 475.41,349.09 474.09,345.85 ZM 78.10 481.85 C77.49,480.12 77.00,477.93 77.00,476.98 C77.00,475.77 75.89,475.07 73.25,474.63 C65.36,473.31 65.10,470.33 72.77,469.30 C76.47,468.81 76.83,468.48 77.39,465.13 C78.68,457.43 81.69,457.18 82.91,464.68 C83.48,468.14 83.86,468.52 87.32,469.09 C94.64,470.28 94.73,473.26 87.49,474.76 C83.95,475.50 83.46,475.96 82.95,479.08 C81.88,485.66 79.83,486.83 78.10,481.85 ZM 277.81 71.74 C277.50,73.38 275.04,73.51 242.49,73.64 C223.24,73.72 206.69,73.57 205.69,73.31 C204.70,73.05 204.06,72.31 204.28,71.67 C204.56,70.81 214.52,70.43 241.41,70.24 C276.04,69.99 278.13,70.08 277.81,71.74 ZM 280.00 241.65 C280.00,239.80 279.71,235.53 279.36,232.15 C278.82,226.96 278.41,226.00 276.79,226.00 C274.03,226.00 261.84,234.94 262.20,236.69 C262.48,238.05 276.04,244.81 278.75,244.94 C279.51,244.98 280.00,243.69 280.00,241.65 ZM 389.50 176.00 C389.50,177.29 385.36,177.54 359.32,177.76 C329.71,178.02 325.93,177.67 328.70,174.90 C329.24,174.36 342.10,174.08 359.57,174.23 C385.39,174.46 389.50,174.71 389.50,176.00 ZM 389.50 158.50 C389.50,159.14 376.41,159.59 352.75,159.76 C320.37,159.99 316.00,159.84 316.00,158.50 C316.00,157.16 320.37,157.01 352.75,157.24 C376.41,157.41 389.50,157.86 389.50,158.50 ZM 265.00 89.50 C265.00,90.89 205.36,91.39 204.50,90.01 C204.16,89.45 204.47,88.76 205.20,88.48 C207.77,87.49 265.00,88.47 265.00,89.50 ZM 123.60 276.23 C124.21,275.83 125.25,274.46 125.92,273.18 C128.45,268.39 121.07,263.33 117.20,267.20 C113.31,271.09 119.09,279.24 123.60,276.23 ZM 140.25 275.47 C143.16,277.51 144.83,277.12 147.30,273.81 C149.20,271.26 149.22,270.98 147.63,268.56 C145.81,265.78 141.34,265.06 139.20,267.20 C137.20,269.20 137.78,273.73 140.25,275.47 ZM 96.22 275.44 C97.44,276.30 98.87,277.00 99.39,277.00 C101.36,277.00 104.00,273.59 104.00,271.05 C104.00,267.70 102.32,266.00 99.00,266.00 C97.57,266.00 95.86,266.54 95.20,267.20 C93.21,269.19 93.77,273.73 96.22,275.44 ZM 306.23 281.41 L 308.02 279.92 L 310.80 280.07 C309.05,280.25 307.44,280.74 306.23,281.41 ZM 301.64 265.86 C308.26,263.68 321.97,260.11 330.48,258.24 C322.78,259.95 310.59,263.15 301.64,265.86 ZM 391.93 269.04 C392.06,269.16 392.25,269.27 392.50,269.36 C393.32,269.67 393.98,271.13 394.01,272.64 C393.60,270.91 392.94,269.53 392.36,269.31 C392.17,269.24 392.03,269.15 391.93,269.04 ZM 282.34 271.60 C283.12,271.37 283.87,271.16 284.59,270.99 C285.45,270.77 286.37,270.53 287.33,270.27 C285.43,270.81 283.69,271.27 282.34,271.60 ZM 475.11 461.45 C470.37,460.40 466.39,459.26 463.97,458.29 C466.41,459.26 470.46,460.42 475.11,461.45 ZM 461.44 456.81 C461.51,456.90 461.58,456.99 461.65,457.06 C461.65,457.06 461.65,457.05 461.64,457.05 C461.58,456.99 461.51,456.91 461.44,456.81 Z" fill="rgba(242,243,246,1)"/>
<path d="M 363.87 309.75 C358.52,303.01 352.31,290.12 350.73,282.46 C349.67,277.32 349.22,276.52 347.51,276.85 C346.42,277.07 344.91,278.12 344.16,279.19 C343.41,280.26 342.15,280.89 341.36,280.58 C340.57,280.28 339.68,280.67 339.38,281.44 C338.55,283.62 336.12,284.12 333.70,282.60 C332.36,281.77 326.90,280.97 319.76,280.58 L 308.02 279.92 L 297.10 288.96 C287.03,297.30 285.84,298.00 281.81,298.00 C279.41,298.00 276.46,297.31 275.26,296.47 C272.24,294.35 270.89,288.83 271.99,283.06 C273.61,274.51 274.65,273.21 280.89,271.93 C283.98,271.29 291.23,269.22 297.00,267.32 C309.22,263.30 333.89,257.00 337.44,257.00 C338.78,257.00 340.16,257.45 340.50,258.00 C341.66,259.88 343.10,259.00 344.23,255.75 C346.06,250.46 351.65,240.23 355.06,235.92 C357.28,233.12 358.88,232.00 360.37,232.21 C361.98,232.43 362.50,231.97 362.50,230.31 C362.50,228.00 369.29,221.00 371.53,221.00 C372.23,221.00 373.73,222.57 374.86,224.48 C375.99,226.39 380.98,230.94 385.95,234.58 C395.82,241.79 396.76,243.70 393.51,249.98 C392.12,252.68 392.15,252.91 394.01,253.50 C398.04,254.78 397.76,260.76 393.43,265.90 C391.59,268.08 391.33,268.91 392.36,269.31 C393.10,269.59 393.97,271.76 394.29,274.12 C394.82,278.10 394.57,278.75 390.86,282.77 C388.59,285.23 384.76,291.59 382.06,297.37 C377.26,307.64 371.99,315.00 369.42,315.00 C368.66,315.00 366.17,312.64 363.87,309.75 ZM 466.50 485.52 C464.30,484.17 459.47,481.88 455.77,480.45 C451.73,478.88 448.05,476.66 446.54,474.87 C444.22,472.11 437.41,452.51 430.68,429.25 L 428.30 421.00 L 434.40 420.96 C437.76,420.93 442.30,420.23 444.50,419.39 C448.28,417.95 450.07,417.12 451.06,417.69 C452.10,418.28 452.27,420.41 452.94,424.97 C454.74,437.32 459.54,454.99 461.64,457.05 C462.76,458.15 468.11,459.90 475.11,461.45 C490.33,464.84 500.50,468.30 500.50,470.09 C500.50,470.87 501.40,471.96 502.49,472.53 C505.05,473.84 505.67,477.04 503.60,478.20 C502.72,478.70 502.00,479.93 502.00,480.94 C502.00,481.96 501.43,483.00 500.73,483.27 C500.04,483.54 493.63,482.24 486.48,480.39 C479.34,478.54 472.60,477.03 471.50,477.04 C469.74,477.06 469.83,477.31 472.25,479.12 C475.44,481.50 475.76,484.00 473.17,486.35 C472.25,487.18 471.76,487.68 471.19,487.80 C470.35,487.96 469.34,487.28 466.50,485.52 ZM 179.00 465.63 C179.00,462.56 178.64,462.08 175.93,461.48 C167.89,459.72 161.70,449.98 162.11,439.76 L 162.36 433.80 C166.92,433.64 170.44,433.29 171.48,432.74 C172.45,432.22 174.80,430.40 177.62,428.07 C174.45,430.88 172.37,433.00 172.81,433.00 C173.32,433.00 174.80,432.17 176.12,431.16 C177.30,430.25 180.20,428.81 182.87,427.79 C175.43,431.04 174.86,433.03 175.22,441.59 C175.47,447.40 176.03,449.45 178.36,452.97 C180.77,456.61 181.03,457.63 180.10,459.68 C179.50,461.01 179.00,463.69 179.00,465.63 ZM 183.24 423.28 C187.94,419.18 192.38,415.06 193.18,413.86 L 194.65 411.64 L 198.25 415.57 L 201.86 419.50 L 199.18 420.94 C197.80,421.67 192.90,423.76 187.99,425.71 C188.62,425.39 189.00,425.13 189.00,424.99 C189.00,424.66 188.38,423.53 187.62,422.50 C186.66,421.19 186.15,420.97 183.24,423.28 ZM 374.60 242.27 C373.59,241.25 372.75,242.78 373.58,244.13 C374.21,245.15 374.45,245.15 374.79,244.14 C375.02,243.44 374.94,242.60 374.60,242.27 ZM 152.52 433.86 L 152.43 433.86 C147.21,433.99 142.16,433.68 137.41,432.97 C141.45,433.46 147.03,433.76 152.52,433.86 ZM 127.94 430.91 C121.57,429.04 116.03,426.33 111.73,422.89 C115.80,426.14 121.58,428.98 127.94,430.91 Z" fill="rgba(254,169,159,1)"/>
<path d="M 301.00 144.15 L 303.59 141.08 L 306.18 138.00 L 398.82 138.00 L 401.41 141.08 L 404.00 144.15 L 404.00 165.14 C404.00,177.63 403.58,186.91 402.97,188.06 C400.43,192.79 398.56,193.00 358.24,193.00 L 320.37 193.00 L 317.44 196.09 C315.82,197.80 311.46,201.89 307.75,205.20 L 301.00 211.21 L 301.00 144.15 ZM 153.91 474.86 C146.72,468.53 145.87,467.41 146.35,464.99 C146.86,462.43 146.49,462.08 140.44,459.51 C127.69,454.09 114.64,442.95 106.26,430.34 C100.37,421.47 103.91,416.64 111.73,422.89 C120.96,430.27 135.81,434.27 152.43,433.86 L 162.36 433.61 L 162.11 439.76 C161.70,449.98 167.89,459.72 175.93,461.48 C178.65,462.08 179.00,462.56 179.00,465.67 C179.00,468.60 178.00,470.22 172.84,475.59 C168.72,479.88 165.91,482.00 164.35,482.00 C162.88,482.00 159.02,479.36 153.91,474.86 ZM 389.50 176.00 C389.50,174.71 385.39,174.46 359.57,174.23 C342.10,174.08 329.24,174.36 328.70,174.90 C325.93,177.67 329.71,178.02 359.32,177.76 C385.36,177.54 389.50,177.29 389.50,176.00 ZM 389.50 158.50 C389.50,157.86 376.41,157.41 352.75,157.24 C320.37,157.01 316.00,157.16 316.00,158.50 C316.00,159.84 320.37,159.99 352.75,159.76 C376.41,159.59 389.50,159.14 389.50,158.50 ZM 202.00 455.94 C204.75,454.06 218.94,447.00 219.98,447.00 C221.60,447.00 221.16,453.69 219.43,455.43 C218.24,456.62 215.75,457.00 209.18,456.98 C202.93,456.97 200.92,456.68 202.00,455.94 ZM 96.22 275.44 C93.77,273.73 93.21,269.19 95.20,267.20 C95.86,266.54 97.57,266.00 99.00,266.00 C102.32,266.00 104.00,267.70 104.00,271.05 C104.00,273.59 101.36,277.00 99.39,277.00 C98.87,277.00 97.44,276.30 96.22,275.44 ZM 179.06 426.81 C185.85,420.96 186.32,420.72 187.62,422.50 C188.38,423.53 189.00,424.66 189.00,424.99 C189.00,425.33 186.64,426.44 183.75,427.47 C180.86,428.49 177.43,430.15 176.12,431.16 C174.80,432.17 173.32,433.00 172.81,433.00 C172.30,433.00 175.12,430.21 179.06,426.81 Z" fill="rgba(254,77,166,1)"/>
<path d="M 140.25 275.47 C137.78,273.73 137.20,269.20 139.20,267.20 C141.34,265.06 145.81,265.78 147.63,268.56 C149.22,270.98 149.20,271.26 147.30,273.81 C144.83,277.12 143.16,277.51 140.25,275.47 ZM 282.63 115.45 L 273.75 107.00 L 237.63 106.99 C215.95,106.99 200.02,106.58 197.80,105.96 C195.76,105.39 193.17,103.76 192.05,102.33 C190.13,99.89 190.00,98.38 190.00,78.29 L 190.00 56.85 L 192.92 53.92 L 195.85 51.00 L 241.50 51.00 L 287.15 51.00 L 290.08 53.92 L 293.00 56.85 L 293.00 90.42 C293.00,108.89 292.66,123.98 292.25,123.95 C291.84,123.93 287.51,120.11 282.63,115.45 ZM 265.00 89.50 C265.00,88.47 207.77,87.49 205.20,88.48 C204.47,88.76 204.16,89.45 204.50,90.01 C205.36,91.39 265.00,90.89 265.00,89.50 ZM 277.81 71.74 C278.13,70.08 276.04,69.99 241.41,70.24 C214.52,70.43 204.56,70.81 204.28,71.67 C204.06,72.31 204.70,73.05 205.69,73.31 C206.69,73.57 223.24,73.72 242.49,73.64 C275.04,73.51 277.50,73.38 277.81,71.74 Z" fill="rgba(254,196,102,1)"/>
</g>
</svg>