<svg xmlns="http://www.w3.org/2000/svg" width="512" height="512" viewBox="0 0 512 512">
<g>
<path d="M 8.34 501.49 C5.63,499.86 3.44,497.48 2.09,494.68 L 0.00 490.37 L 0.00 21.63 L 2.10 17.30 C3.49,14.41 5.61,12.14 8.43,10.49 L 12.68 8.00 L 168.44 8.00 C318.32,8.00 328.45,7.58 332.07,12.23 C332.63,12.96 333.04,13.81 333.81,14.81 L 336.50 18.34 L 336.50 77.46 L 330.08 81.50 L 330.04 92.25 C330.01,101.16 330.26,103.00 331.50,103.00 C332.33,103.00 333.90,103.90 335.00,105.00 C336.89,106.89 337.00,108.33 337.00,131.37 L 337.00 155.73 L 355.25 156.31 C375.75,156.95 386.55,158.76 403.30,164.36 C474.90,188.32 520.51,261.32 510.56,336.02 C507.92,355.85 503.17,370.93 493.82,389.12 C471.95,431.68 430.98,462.69 383.74,472.42 C372.95,474.65 352.89,476.15 344.35,475.39 L 337.20 474.74 L 336.85 484.20 C336.54,492.64 336.21,494.04 333.81,497.19 C332.95,498.32 332.37,499.26 331.62,500.04 C327.60,504.29 318.77,504.00 234.60,504.00 C146.33,504.00 144.97,503.97 143.00,502.00 C141.90,500.90 141.00,499.33 141.00,498.50 C141.00,497.25 139.06,497.00 129.50,497.00 C119.94,497.00 118.00,497.25 118.00,498.50 C118.00,499.33 117.10,500.90 116.00,502.00 C114.05,503.95 112.67,504.00 63.25,503.99 L 12.50 503.98 ZM 118.50 495.01 C119.08,496.84 120.01,497.00 129.82,496.98 L 140.50 496.96 L 143.50 490.50 L 232.00 490.00 C280.67,489.73 321.06,489.14 321.75,488.69 C322.56,488.17 323.00,485.33 323.00,480.60 L 323.00 473.31 L 312.90 470.67 C285.27,463.43 261.02,449.69 240.25,429.51 L 231.50 421.00 L 192.20 421.00 C159.67,421.00 152.41,420.75 150.07,419.54 C145.52,417.18 144.50,411.50 148.00,408.00 C149.92,406.08 151.33,406.00 184.50,406.00 C205.99,406.00 219.00,405.64 219.00,405.04 C219.00,404.50 216.94,400.68 214.43,396.54 C208.58,386.90 202.74,373.44 199.09,361.13 C196.02,350.80 193.00,333.94 193.00,327.13 L 193.00 323.00 L 171.81 323.00 C151.44,323.00 150.54,322.92 148.31,320.83 C145.48,318.17 145.22,313.01 147.81,310.68 C149.34,309.29 152.87,309.00 171.06,308.77 L 192.50 308.50 L 193.22 300.50 C195.27,277.62 203.56,252.85 216.06,232.27 L 219.88 226.00 L 185.57 226.00 C152.38,226.00 151.18,225.93 148.63,223.93 C144.99,221.06 144.99,215.94 148.63,213.07 C151.20,211.05 152.32,211.00 191.27,211.00 L 231.27 211.00 L 241.93 200.70 C262.75,180.59 285.70,168.15 317.50,159.76 L 322.50 158.44 L 323.04 131.97 C323.34,117.41 323.68,105.44 323.79,105.37 C323.91,105.30 325.35,104.68 327.00,104.00 L 330.00 102.76 L 329.96 92.13 L 329.92 81.50 L 323.50 77.46 L 322.50 23.50 L 15.50 23.50 L 15.24 255.50 C15.00,472.73 15.10,487.58 16.68,488.75 C17.99,489.71 29.60,490.00 66.62,490.00 C109.36,490.00 115.78,489.90 117.63,492.76 C118.03,493.36 118.22,494.10 118.50,495.01 ZM 336.61 460.01 C346.02,461.20 366.60,460.42 377.46,458.47 C406.91,453.18 432.39,439.74 454.06,418.06 C481.09,391.04 495.12,359.40 496.67,322.00 C497.99,290.19 490.25,262.25 472.83,235.92 C444.52,193.14 397.34,169.01 346.50,171.33 C339.35,171.65 329.72,172.64 325.11,173.52 C266.08,184.82 219.73,232.11 209.47,291.50 C207.24,304.43 207.17,327.28 209.33,339.50 C220.72,403.97 271.19,451.75 336.61,460.01 ZM 372.00 438.45 C354.63,441.27 334.12,439.96 317.81,435.01 C272.99,421.40 239.82,385.45 230.52,340.43 C228.80,332.12 229.54,328.99 233.66,327.11 C240.15,324.15 242.68,326.98 246.15,341.07 C250.95,360.62 259.73,376.51 273.81,391.17 C287.87,405.82 305.27,416.08 325.56,421.70 C334.53,424.18 337.11,424.45 352.00,424.48 C372.94,424.51 383.77,422.07 401.02,413.46 C428.71,399.64 450.14,373.37 457.86,343.80 C464.81,317.19 462.04,291.55 449.50,266.50 C434.13,235.81 405.46,214.31 372.12,208.47 C361.39,206.59 343.61,206.59 332.88,208.47 C299.83,214.26 270.78,235.65 255.29,265.61 C251.19,273.54 245.00,291.26 245.00,295.06 C245.00,296.18 244.34,298.37 243.54,299.93 C241.14,304.57 236.92,305.30 232.51,301.83 C229.88,299.76 229.77,299.35 230.34,293.58 C231.76,279.19 241.42,256.61 252.42,241.94 C272.08,215.75 300.67,198.38 332.42,193.34 C344.59,191.41 368.80,191.99 379.90,194.48 C391.12,197.00 402.76,201.53 412.82,207.30 C445.57,226.07 467.37,256.73 474.43,293.93 C476.42,304.45 476.48,326.00 474.54,337.13 C465.52,388.83 423.80,430.06 372.00,438.45 ZM 106.62 127.09 C102.99,128.74 99.84,128.96 80.00,128.95 L 57.50 128.95 L 52.56 126.23 C49.05,124.28 46.96,122.23 45.31,119.09 C43.09,114.85 43.00,113.82 43.02,91.59 C43.04,71.24 43.26,68.01 44.91,64.40 C47.23,59.28 51.27,56.35 57.96,54.91 C65.24,53.35 103.69,54.09 106.83,55.85 C108.78,56.95 109.69,56.90 112.48,55.58 C116.84,53.51 118.20,53.59 121.37,56.07 C125.27,59.15 124.96,63.68 120.55,67.95 L 117.10 71.29 L 116.80 94.48 L 116.50 117.66 L 113.62 121.44 C112.03,123.52 108.88,126.06 106.62,127.09 ZM 105.68 224.94 C102.17,226.26 58.46,226.26 55.15,224.93 C50.72,223.16 46.96,219.83 44.98,215.96 C43.18,212.43 43.00,210.02 43.00,189.01 C43.00,171.89 43.35,165.10 44.35,162.70 C45.91,158.98 51.98,153.29 55.29,152.46 C57.01,152.03 96.36,152.38 109.50,152.94 C110.60,152.99 113.58,152.76 116.13,152.42 C120.20,151.89 120.95,152.10 122.38,154.13 C124.92,157.76 124.36,161.22 120.50,165.73 L 117.00 169.82 L 117.00 191.46 C117.00,214.88 116.78,216.04 111.34,221.19 C109.78,222.66 107.23,224.35 105.68,224.94 ZM 107.97 418.00 C103.62,420.43 102.90,420.51 81.50,420.74 C57.37,421.01 54.26,420.49 48.76,415.33 C43.36,410.25 43.00,408.22 43.00,382.99 C43.00,362.33 43.20,359.53 44.89,356.21 C49.63,346.92 52.84,346.00 80.40,346.00 C104.25,346.00 106.65,346.37 111.34,350.81 C116.85,356.03 117.00,356.89 116.98,383.20 C116.97,406.58 116.88,407.65 114.70,411.50 C113.32,413.94 110.70,416.47 107.97,418.00 ZM 106.80 321.59 C102.64,323.76 57.69,323.55 53.50,321.33 C49.09,319.01 47.01,316.94 44.89,312.79 C43.20,309.47 43.00,306.67 43.00,286.01 C43.00,260.89 43.38,258.72 48.63,253.81 C53.41,249.34 55.69,249.00 80.82,249.02 C103.53,249.03 104.66,249.13 108.48,251.29 C110.71,252.55 113.45,255.29 114.71,257.52 C116.88,261.35 116.97,262.45 116.98,285.82 C116.99,301.86 116.62,310.87 115.88,312.32 C114.22,315.54 109.87,319.98 106.80,321.59 ZM 382.89 369.99 C375.21,374.56 370.32,375.13 365.50,372.04 C363.57,370.79 359.14,364.48 353.06,354.30 C345.23,341.20 342.84,337.99 339.08,335.50 C333.84,332.03 330.46,327.42 328.89,321.60 C327.58,316.74 328.28,309.29 330.45,305.10 C332.50,301.13 338.37,295.50 342.05,293.98 L 345.00 292.76 L 345.00 271.33 C345.00,249.92 345.00,249.91 347.45,247.45 C350.79,244.11 355.22,244.19 357.93,247.63 C359.88,250.11 360.00,251.54 360.00,271.57 C360.00,292.36 360.05,292.88 362.11,293.54 C365.33,294.56 371.92,300.92 374.02,305.04 C375.05,307.06 376.20,311.14 376.58,314.10 C377.13,318.50 378.95,322.28 386.34,334.50 C394.64,348.20 395.43,349.95 395.46,354.68 C395.51,361.00 393.10,363.93 382.89,369.99 ZM 292.55 126.55 L 290.09 129.00 L 220.68 129.00 C151.97,129.00 151.24,128.98 148.63,126.93 C146.72,125.42 146.00,123.93 146.00,121.50 C146.00,119.07 146.72,117.58 148.63,116.07 C151.24,114.02 151.97,114.00 221.06,114.00 L 290.85 114.00 L 292.93 116.63 C295.68,120.13 295.55,123.55 292.55,126.55 ZM 59.67 404.75 C62.25,406.63 99.32,406.52 100.90,404.62 C101.70,403.66 101.96,396.93 101.77,382.37 L 101.50 361.50 L 58.50 361.50 L 58.23 382.50 C57.99,401.36 58.13,403.62 59.67,404.75 ZM 58.45 306.74 C58.85,307.76 63.52,307.98 80.23,307.77 L 101.50 307.50 L 101.50 264.50 L 58.50 264.50 L 58.23 284.97 C58.08,296.23 58.18,306.03 58.45,306.74 ZM 59.25 113.35 C59.94,113.63 69.72,113.78 81.00,113.68 L 101.50 113.50 L 101.78 100.03 L 102.06 86.57 L 92.17 96.28 C86.73,101.63 81.52,106.00 80.59,106.00 C75.14,106.00 64.00,94.93 64.00,89.52 C64.00,86.99 68.62,83.00 71.55,83.00 C73.00,83.00 75.54,83.96 77.20,85.14 L 80.20 87.28 L 89.35 78.14 L 98.49 69.00 L 79.83 69.00 C69.56,69.00 60.45,69.27 59.58,69.61 C58.21,70.13 58.00,73.01 58.00,91.52 C58.00,107.63 58.31,112.96 59.25,113.35 ZM 58.45 209.74 C58.85,210.76 63.52,210.98 80.23,210.77 L 101.50 210.50 L 101.78 197.57 L 102.06 184.65 L 92.58 193.82 C80.44,205.56 79.37,205.70 70.33,196.67 C63.17,189.51 62.36,186.54 66.45,182.45 C69.62,179.29 73.66,179.30 76.98,182.48 L 79.57 184.97 L 88.54 175.96 L 97.50 166.96 L 78.00 167.23 L 58.50 167.50 L 58.23 187.97 C58.08,199.23 58.18,209.03 58.45,209.74 ZM 181.55 390.55 C179.18,392.91 178.60,393.00 165.80,392.97 C152.62,392.94 149.78,392.36 147.25,389.18 C145.37,386.83 145.75,382.25 148.00,380.00 C149.83,378.17 151.33,378.00 165.44,378.00 C180.27,378.00 180.95,378.09 182.44,380.22 C184.74,383.51 184.38,387.71 181.55,390.55 ZM 181.69 98.83 C179.54,100.85 178.37,101.00 165.32,101.00 C152.62,101.00 151.02,100.80 148.63,98.93 C146.72,97.42 146.00,95.93 146.00,93.50 C146.00,91.07 146.72,89.58 148.63,88.07 C151.01,86.20 152.62,86.00 165.00,86.00 C177.38,86.00 178.99,86.20 181.37,88.07 C184.81,90.78 184.96,95.75 181.69,98.83 ZM 179.93 294.54 C176.16,296.49 154.85,296.51 150.40,294.57 C145.58,292.48 144.37,286.63 148.00,283.00 C149.83,281.17 151.33,281.00 165.35,281.00 C178.94,281.00 180.88,281.21 182.35,282.83 C185.53,286.34 184.30,292.28 179.93,294.54 ZM 182.00 196.00 C180.19,197.81 178.67,198.00 165.63,198.00 C152.62,198.00 151.02,197.81 148.63,195.93 C145.29,193.30 145.03,188.19 148.10,185.40 C149.98,183.71 151.86,183.50 165.00,183.50 C178.14,183.50 180.02,183.71 181.90,185.40 C184.64,187.89 184.70,193.30 182.00,196.00 ZM 345.92 322.08 C351.84,327.99 360.89,324.27 360.97,315.88 C361.02,310.24 357.89,307.00 352.38,307.00 C343.49,307.00 339.70,315.85 345.92,322.08 ZM 366.81 348.28 C369.94,353.60 372.60,357.97 372.72,357.98 C373.60,358.06 380.00,354.47 380.00,353.89 C380.00,352.46 369.61,335.79 368.44,335.34 C367.78,335.09 365.87,335.72 364.18,336.74 L 361.12 338.60 ZM 279.93 365.54 C278.37,366.34 276.96,366.97 276.80,366.94 C272.98,366.13 269.00,362.03 269.00,358.91 C269.00,358.01 269.93,356.08 271.07,354.63 C273.84,351.12 280.11,350.89 282.44,354.22 C285.36,358.39 284.27,363.29 279.93,365.54 ZM 444.69 320.83 C441.62,323.71 437.51,323.60 434.45,320.55 C430.06,316.15 432.25,309.63 438.52,308.42 C445.52,307.08 449.91,315.91 444.69,320.83 ZM 281.55 277.55 C278.31,280.78 275.49,280.64 271.92,277.08 C268.47,273.62 268.25,271.22 271.07,267.63 C272.59,265.70 274.06,265.00 276.57,265.00 C283.51,265.00 286.51,272.58 281.55,277.55 ZM 401.08 396.08 C397.92,399.23 396.60,399.54 393.50,397.85 C390.45,396.18 389.00,393.91 389.00,390.81 C389.00,384.30 397.84,381.44 401.93,386.63 C404.75,390.22 404.53,392.62 401.08,396.08 ZM 401.08 245.08 C397.92,248.23 396.60,248.54 393.50,246.85 C390.45,245.18 389.00,242.91 389.00,239.81 C389.00,233.30 397.84,230.44 401.93,235.63 C404.75,239.22 404.53,241.62 401.08,245.08 ZM 432.61 364.66 C429.59,367.26 428.44,367.45 425.50,365.85 C422.37,364.13 421.00,361.89 421.00,358.46 C421.00,354.42 423.69,352.00 428.17,352.00 C435.16,352.00 437.98,360.04 432.61,364.66 ZM 432.61 277.66 C429.86,280.02 428.74,280.30 426.00,279.29 C418.06,276.37 419.93,265.00 428.35,265.00 C435.16,265.00 437.90,273.11 432.61,277.66 ZM 311.93 246.54 C308.15,248.49 307.65,248.42 304.08,245.41 C300.30,242.24 300.01,238.28 303.31,235.17 C306.59,232.10 311.31,232.30 313.93,235.63 C317.30,239.92 316.52,244.16 311.93,246.54 ZM 357.75 407.68 C354.77,410.36 352.95,410.91 350.31,409.92 C345.23,408.03 343.75,401.39 347.57,397.57 C350.01,395.13 356.55,395.52 358.44,398.22 C360.66,401.38 360.37,405.32 357.75,407.68 ZM 356.37 233.93 C354.92,235.07 352.95,236.00 352.00,236.00 C348.61,236.00 345.00,232.09 345.00,228.43 C345.00,222.09 351.49,218.86 356.78,222.56 C360.11,224.89 359.88,231.16 356.37,233.93 ZM 313.08 396.08 C309.49,399.67 308.01,399.72 304.08,396.41 C298.53,391.74 301.48,384.00 308.81,384.00 C315.74,384.00 318.20,390.96 313.08,396.08 ZM 268.96 322.02 C266.12,323.54 263.51,323.19 260.58,320.89 C254.79,316.33 259.66,306.89 266.97,308.49 C272.81,309.78 274.20,319.22 268.96,322.02 Z" fill="rgba(0,0,0,1)"/>
<path d="M 371.57 459.31 L 382.23 454.17 C388.98,450.91 398.72,445.42 403.89,441.97 C418.72,432.05 437.26,413.34 445.49,400.00 C448.07,395.81 447.69,396.06 439.88,403.59 C425.72,417.27 412.30,425.98 395.92,432.02 C436.28,416.64 466.96,380.59 474.54,337.13 C476.48,326.00 476.42,304.45 474.43,293.93 C467.90,259.50 448.73,230.67 419.95,211.69 C428.77,217.34 436.79,223.90 443.19,230.90 C449.33,237.61 447.83,233.98 440.33,223.96 C426.39,205.32 407.70,190.02 385.08,178.71 L 372.61 172.47 C413.17,177.96 449.44,200.58 472.83,235.92 C490.25,262.25 497.99,290.19 496.67,322.00 C495.12,359.40 481.09,391.04 454.06,418.06 C432.39,439.74 406.91,453.18 377.46,458.47 C375.71,458.78 373.72,459.07 371.57,459.31 ZM 209.33 339.50 C207.17,327.28 207.24,304.43 209.47,291.50 C213.16,270.14 221.52,250.35 233.45,233.23 ZM 363.26 171.52 L 352.58 171.55 C346.41,171.57 341.30,171.70 336.70,172.03 C340.03,171.72 343.49,171.46 346.50,171.33 C352.14,171.07 357.73,171.14 363.26,171.52 ZM 294.21 425.25 C290.37,423.20 286.60,420.95 282.90,418.48 C271.96,411.20 262.28,402.10 254.22,391.70 C264.92,405.40 278.50,416.85 294.21,425.25 ZM 360.60 439.69 C350.23,440.41 339.89,439.79 329.73,437.86 C339.67,439.66 350.38,440.30 360.60,439.69 ZM 337.09 460.07 C339.81,460.36 344.63,460.54 349.62,460.57 C344.76,460.60 340.33,460.44 337.09,460.07 Z" fill="rgba(21,116,201,1)"/>
<path d="M 59.25 113.35 C58.31,112.96 58.00,107.63 58.00,91.52 C58.00,73.01 58.21,70.13 59.58,69.61 C60.45,69.27 69.56,69.00 79.83,69.00 L 98.49 69.00 L 89.35 78.14 L 80.20 87.28 L 77.20 85.14 C75.54,83.96 73.00,83.00 71.55,83.00 C68.62,83.00 64.00,86.99 64.00,89.52 C64.00,94.93 75.14,106.00 80.59,106.00 C81.52,106.00 86.73,101.63 92.17,96.28 L 102.06 86.57 L 101.78 100.03 L 101.50 113.50 L 81.00 113.68 C69.72,113.78 59.94,113.63 59.25,113.35 ZM 58.45 209.74 C58.18,209.03 58.08,199.23 58.23,187.97 L 58.50 167.50 L 78.00 167.23 L 97.50 166.96 L 88.54 175.96 L 79.57 184.97 L 76.98 182.48 C73.66,179.30 69.62,179.29 66.45,182.45 C62.36,186.54 63.17,189.51 70.33,196.67 C79.37,205.70 80.44,205.56 92.58,193.82 L 102.06 184.65 L 101.78 197.57 L 101.50 210.50 L 80.23 210.77 C63.52,210.98 58.85,210.76 58.45,209.74 Z" fill="rgba(45,180,192,1)"/>
<path d="M 336.61 460.01 C271.17,451.74 220.72,403.97 209.33,339.50 C207.17,327.28 207.24,304.43 209.47,291.50 C218.56,238.91 256.35,194.90 306.56,178.46 C323.43,172.93 332.26,171.61 352.58,171.55 L 370.66 171.50 L 385.08 178.71 C407.70,190.02 426.39,205.32 440.33,223.96 C447.83,233.98 449.33,237.61 443.19,230.90 C427.72,213.97 402.77,199.62 379.90,194.48 C368.80,191.99 344.59,191.41 332.42,193.34 C300.67,198.38 272.08,215.75 252.42,241.94 C241.42,256.61 231.76,279.19 230.34,293.58 C229.77,299.35 229.88,299.76 232.51,301.83 C234.33,303.26 236.13,303.98 237.77,304.00 C236.47,304.53 236.01,305.50 235.63,307.85 C234.20,316.46 235.19,326.00 237.51,326.00 C238.78,326.00 239.87,326.46 240.88,327.52 C239.03,325.60 236.81,325.67 233.66,327.11 C229.54,328.99 228.80,332.12 230.52,340.43 C237.08,372.19 256.23,400.73 282.90,418.48 C316.02,440.53 354.82,445.84 392.00,433.40 C410.19,427.32 424.61,418.34 439.88,403.59 C447.69,396.06 448.07,395.81 445.49,400.00 C437.26,413.34 418.72,432.05 403.89,441.97 C398.72,445.42 388.98,450.91 382.23,454.17 L 369.96 460.09 L 356.73 460.49 C349.45,460.70 340.40,460.49 336.61,460.01 ZM 273.81 391.17 C287.04,404.95 303.51,414.98 322.10,420.69 C325.86,421.84 329.69,422.81 333.61,423.61 C331.17,423.20 328.78,422.59 325.56,421.70 C324.40,421.38 323.25,421.04 322.10,420.69 C303.29,414.89 287.07,404.98 273.81,391.17 ZM 431.62 390.60 C444.06,377.35 453.35,361.08 457.86,343.80 C453.33,361.15 444.08,377.37 431.62,390.60 ZM 243.49 300.02 C243.51,299.99 243.52,299.96 243.54,299.93 C244.34,298.37 245.00,296.18 245.00,295.06 C245.00,296.74 244.41,298.51 243.49,300.02 ZM 362.66 424.22 C368.74,423.84 373.92,423.15 378.89,421.98 C373.86,423.18 368.66,423.88 362.66,424.22 Z" fill="rgba(88,144,208,1)"/>
<path d="M 118.50 495.01 C118.22,494.10 118.03,493.36 117.63,492.76 C115.78,489.90 109.36,490.00 66.62,490.00 C29.60,490.00 17.99,489.71 16.68,488.75 C15.10,487.58 15.00,472.73 15.24,255.50 L 15.50 23.50 L 322.50 23.50 L 323.50 77.46 L 329.92 81.50 L 329.96 92.13 L 330.00 102.76 L 327.00 104.00 C325.35,104.68 323.91,105.30 323.79,105.37 C323.68,105.44 323.34,117.41 323.04,131.97 L 322.50 158.44 L 317.50 159.76 C285.70,168.15 262.75,180.59 241.93,200.70 L 231.27 211.00 L 191.27 211.00 C152.32,211.00 151.20,211.05 148.63,213.07 C144.99,215.94 144.99,221.06 148.63,223.93 C151.18,225.93 152.38,226.00 185.57,226.00 L 219.88 226.00 L 216.06 232.27 C203.56,252.85 195.27,277.62 193.22,300.50 L 192.50 308.50 L 171.06 308.77 C152.87,309.00 149.34,309.29 147.81,310.68 C145.22,313.01 145.48,318.17 148.31,320.83 C150.54,322.92 151.44,323.00 171.81,323.00 L 193.00 323.00 L 193.00 327.13 C193.00,333.94 196.02,350.80 199.09,361.13 C202.74,373.44 208.58,386.90 214.43,396.54 C216.94,400.68 219.00,404.50 219.00,405.04 C219.00,405.64 205.99,406.00 184.50,406.00 C151.33,406.00 149.92,406.08 148.00,408.00 C144.50,411.50 145.52,417.18 150.07,419.54 C152.41,420.75 159.67,421.00 192.20,421.00 L 231.50 421.00 L 240.25 429.51 C261.02,449.69 285.27,463.43 312.90,470.67 L 323.00 473.31 L 323.00 480.60 C323.00,485.33 322.56,488.17 321.75,488.69 C321.06,489.14 280.67,489.73 232.00,490.00 L 143.50 490.50 L 140.50 496.96 L 129.82 496.98 C120.01,497.00 119.08,496.84 118.50,495.01 ZM 335.92 424.05 C311.64,419.61 290.23,408.27 273.81,391.17 C259.73,376.51 250.95,360.62 246.15,341.07 C243.38,329.83 241.19,326.00 237.51,326.00 C235.19,326.00 234.20,316.46 235.63,307.85 C236.12,304.85 236.73,304.10 239.07,303.64 C242.07,303.04 245.00,298.80 245.00,295.06 C245.00,291.26 251.19,273.54 255.29,265.61 C270.78,235.65 299.83,214.26 332.88,208.47 C343.61,206.59 361.39,206.59 372.12,208.47 C405.46,214.31 434.13,235.81 449.50,266.50 C462.04,291.55 464.81,317.19 457.86,343.80 C450.21,373.12 428.79,399.53 401.56,413.22 C384.98,421.56 374.87,424.04 355.50,424.52 C347.25,424.72 338.44,424.51 335.92,424.05 ZM 106.62 127.09 C108.88,126.06 112.03,123.52 113.62,121.44 L 116.50 117.66 L 116.80 94.48 L 117.10 71.29 L 120.55 67.95 C124.96,63.68 125.27,59.15 121.37,56.07 C118.20,53.59 116.84,53.51 112.48,55.58 C109.69,56.90 108.78,56.95 106.83,55.85 C103.69,54.09 65.24,53.35 57.96,54.91 C51.27,56.35 47.23,59.28 44.91,64.40 C43.26,68.01 43.04,71.24 43.02,91.59 C43.00,113.82 43.09,114.85 45.31,119.09 C46.96,122.23 49.05,124.28 52.56,126.23 L 57.50 128.95 L 80.00 128.95 C99.84,128.96 102.99,128.74 106.62,127.09 ZM 105.68 224.94 C107.23,224.35 109.78,222.66 111.34,221.19 C116.78,216.04 117.00,214.88 117.00,191.46 L 117.00 169.82 L 120.50 165.73 C124.36,161.22 124.92,157.76 122.38,154.13 C120.95,152.10 120.20,151.89 116.13,152.42 C113.58,152.76 110.60,152.99 109.50,152.94 C96.36,152.38 57.01,152.03 55.29,152.46 C51.98,153.29 45.91,158.98 44.35,162.70 C43.35,165.10 43.00,171.89 43.00,189.01 C43.00,210.02 43.18,212.43 44.98,215.96 C46.96,219.83 50.72,223.16 55.15,224.93 C58.46,226.26 102.17,226.26 105.68,224.94 ZM 107.97 418.00 C110.70,416.47 113.32,413.94 114.70,411.50 C116.88,407.65 116.97,406.58 116.98,383.20 C117.00,356.89 116.85,356.03 111.34,350.81 C106.65,346.37 104.25,346.00 80.40,346.00 C52.84,346.00 49.63,346.92 44.89,356.21 C43.20,359.53 43.00,362.33 43.00,382.99 C43.00,408.22 43.36,410.25 48.76,415.33 C54.26,420.49 57.37,421.01 81.50,420.74 C102.90,420.51 103.62,420.43 107.97,418.00 ZM 106.80 321.59 C109.87,319.98 114.22,315.54 115.88,312.32 C116.62,310.87 116.99,301.86 116.98,285.82 C116.97,262.45 116.88,261.35 114.71,257.52 C113.45,255.29 110.71,252.55 108.48,251.29 C104.66,249.13 103.53,249.03 80.82,249.02 C55.69,249.00 53.41,249.34 48.63,253.81 C43.38,258.72 43.00,260.89 43.00,286.01 C43.00,306.67 43.20,309.47 44.89,312.79 C47.01,316.94 49.09,319.01 53.50,321.33 C57.69,323.55 102.64,323.76 106.80,321.59 ZM 382.89 369.99 C393.10,363.93 395.51,361.00 395.46,354.68 C395.43,349.95 394.64,348.20 386.34,334.50 C378.95,322.28 377.13,318.50 376.58,314.10 C376.20,311.14 375.05,307.06 374.02,305.04 C371.92,300.92 365.33,294.56 362.11,293.54 C360.05,292.88 360.00,292.36 360.00,271.57 C360.00,251.54 359.88,250.11 357.93,247.63 C355.22,244.19 350.79,244.11 347.45,247.45 C345.00,249.91 345.00,249.92 345.00,271.33 L 345.00 292.76 L 342.05 293.98 C338.37,295.50 332.50,301.13 330.45,305.10 C328.28,309.29 327.58,316.74 328.89,321.60 C330.46,327.42 333.84,332.03 339.08,335.50 C342.84,337.99 345.23,341.20 353.06,354.30 C359.14,364.48 363.57,370.79 365.50,372.04 C370.32,375.13 375.21,374.56 382.89,369.99 ZM 292.55 126.55 C295.55,123.55 295.68,120.13 292.93,116.63 L 290.85 114.00 L 221.06 114.00 C151.97,114.00 151.24,114.02 148.63,116.07 C146.72,117.58 146.00,119.07 146.00,121.50 C146.00,123.93 146.72,125.42 148.63,126.93 C151.24,128.98 151.97,129.00 220.68,129.00 L 290.09 129.00 ZM 181.55 390.55 C184.38,387.71 184.74,383.51 182.44,380.22 C180.95,378.09 180.27,378.00 165.44,378.00 C151.33,378.00 149.83,378.17 148.00,380.00 C145.75,382.25 145.37,386.83 147.25,389.18 C149.78,392.36 152.62,392.94 165.80,392.97 C178.60,393.00 179.18,392.91 181.55,390.55 ZM 181.69 98.83 C184.96,95.75 184.81,90.78 181.37,88.07 C178.99,86.20 177.38,86.00 165.00,86.00 C152.62,86.00 151.01,86.20 148.63,88.07 C146.72,89.58 146.00,91.07 146.00,93.50 C146.00,95.93 146.72,97.42 148.63,98.93 C151.02,100.80 152.62,101.00 165.32,101.00 C178.37,101.00 179.54,100.85 181.69,98.83 ZM 179.93 294.54 C184.30,292.28 185.53,286.34 182.35,282.83 C180.88,281.21 178.94,281.00 165.35,281.00 C151.33,281.00 149.83,281.17 148.00,283.00 C144.37,286.63 145.58,292.48 150.40,294.57 C154.85,296.51 176.16,296.49 179.93,294.54 ZM 182.00 196.00 C184.70,193.30 184.64,187.89 181.90,185.40 C180.02,183.71 178.14,183.50 165.00,183.50 C151.86,183.50 149.98,183.71 148.10,185.40 C145.03,188.19 145.29,193.30 148.63,195.93 C151.02,197.81 152.62,198.00 165.63,198.00 C178.67,198.00 180.19,197.81 182.00,196.00 ZM 279.93 365.54 C284.27,363.29 285.36,358.39 282.44,354.22 C280.11,350.89 273.84,351.12 271.07,354.63 C269.93,356.08 269.00,358.01 269.00,358.91 C269.00,362.03 272.98,366.13 276.80,366.94 C276.96,366.97 278.37,366.34 279.93,365.54 ZM 444.69 320.83 C449.91,315.91 445.52,307.08 438.52,308.42 C432.25,309.63 430.06,316.15 434.45,320.55 C437.51,323.60 441.62,323.71 444.69,320.83 ZM 281.55 277.55 C286.51,272.58 283.51,265.00 276.57,265.00 C274.06,265.00 272.59,265.70 271.07,267.63 C268.25,271.22 268.47,273.62 271.92,277.08 C275.49,280.64 278.31,280.78 281.55,277.55 ZM 401.08 396.08 C404.53,392.62 404.75,390.22 401.93,386.63 C397.84,381.44 389.00,384.30 389.00,390.81 C389.00,393.91 390.45,396.18 393.50,397.85 C396.60,399.54 397.92,399.23 401.08,396.08 ZM 401.08 245.08 C404.53,241.62 404.75,239.22 401.93,235.63 C397.84,230.44 389.00,233.30 389.00,239.81 C389.00,242.91 390.45,245.18 393.50,246.85 C396.60,248.54 397.92,248.23 401.08,245.08 ZM 432.61 364.66 C437.98,360.04 435.16,352.00 428.17,352.00 C423.69,352.00 421.00,354.42 421.00,358.46 C421.00,361.89 422.37,364.13 425.50,365.85 C428.44,367.45 429.59,367.26 432.61,364.66 ZM 432.61 277.66 C437.90,273.11 435.16,265.00 428.35,265.00 C419.93,265.00 418.06,276.37 426.00,279.29 C428.74,280.30 429.86,280.02 432.61,277.66 ZM 311.93 246.54 C316.52,244.16 317.30,239.92 313.93,235.63 C311.31,232.30 306.59,232.10 303.31,235.17 C300.01,238.28 300.30,242.24 304.08,245.41 C307.65,248.42 308.15,248.49 311.93,246.54 ZM 357.75 407.68 C360.37,405.32 360.66,401.38 358.44,398.22 C356.55,395.52 350.01,395.13 347.57,397.57 C343.75,401.39 345.23,408.03 350.31,409.92 C352.95,410.91 354.77,410.36 357.75,407.68 ZM 356.37 233.93 C359.88,231.16 360.11,224.89 356.78,222.56 C351.49,218.86 345.00,222.09 345.00,228.43 C345.00,232.09 348.61,236.00 352.00,236.00 C352.95,236.00 354.92,235.07 356.37,233.93 ZM 313.08 396.08 C318.20,390.96 315.74,384.00 308.81,384.00 C301.48,384.00 298.53,391.74 304.08,396.41 C308.01,399.72 309.49,399.67 313.08,396.08 ZM 268.96 322.02 C274.20,319.22 272.81,309.78 266.97,308.49 C259.66,306.89 254.79,316.33 260.58,320.89 C263.51,323.19 266.12,323.54 268.96,322.02 Z" fill="rgba(245,240,239,1)"/>
<path d="M 58.45 306.74 C58.18,306.03 58.08,296.23 58.23,284.97 L 58.50 264.50 L 101.50 264.50 L 101.50 307.50 L 80.23 307.77 C63.52,307.98 58.85,307.76 58.45,306.74 ZM 345.92 322.08 C339.70,315.85 343.49,307.00 352.38,307.00 C357.89,307.00 361.02,310.24 360.97,315.88 C360.89,324.27 351.84,327.99 345.92,322.08 Z" fill="rgba(244,145,39,1)"/>
<path d="M 59.67 404.75 C58.13,403.62 57.99,401.36 58.23,382.50 L 58.50 361.50 L 80.00 361.50 L 101.50 361.50 L 101.77 382.37 C101.96,396.93 101.70,403.66 100.90,404.62 C99.32,406.52 62.25,406.63 59.67,404.75 ZM 366.81 348.28 L 361.12 338.60 L 364.18 336.74 C365.87,335.72 367.78,335.09 368.44,335.34 C369.61,335.79 380.00,352.46 380.00,353.89 C380.00,354.47 373.60,358.06 372.72,357.98 C372.60,357.97 369.94,353.60 366.81,348.28 Z" fill="rgba(253,217,71,1)"/>
</g>
</svg>